<?xml version="1.0" encoding="UTF-8"?>
<!DOCTYPE svg PUBLIC "-//W3C//DTD SVG 1.1//EN" "http://www.w3.org/Graphics/SVG/1.1/DTD/svg11.dtd">
<svg xmlns="http://www.w3.org/2000/svg" version="1.1" width="320px" height="320px" style="shape-rendering:geometricPrecision; text-rendering:geometricPrecision; image-rendering:optimizeQuality; fill-rule:evenodd; clip-rule:evenodd" xmlns:xlink="http://www.w3.org/1999/xlink">
<g><path style="opacity:0.986" fill="#6f49b8" d="M 141.5,-0.5 C 153.5,-0.5 165.5,-0.5 177.5,-0.5C 245.031,10.2025 290.197,47.8692 313,112.5C 315.764,122.17 317.931,131.837 319.5,141.5C 319.5,153.5 319.5,165.5 319.5,177.5C 311.293,233.696 282.293,275.363 232.5,302.5C 231.89,301.609 231.557,300.609 231.5,299.5C 230.117,297.022 229.117,294.355 228.5,291.5C 229.244,288.05 227.91,286.384 224.5,286.5C 224.5,285.167 224.5,283.833 224.5,282.5C 227.5,282.167 228.833,283.5 228.5,286.5C 229.822,286.33 230.989,286.663 232,287.5C 232.167,287 232.333,286.5 232.5,286C 231.427,284.584 231.427,283.25 232.5,282C 231.376,281.751 230.376,281.251 229.5,280.5C 232.714,279.997 235.881,278.664 239,276.5C 239.414,276.957 239.914,277.291 240.5,277.5C 245.284,274.031 250.117,270.697 255,267.5C 255.749,266.365 255.583,265.365 254.5,264.5C 249.723,263.479 249.723,261.813 254.5,259.5C 255.429,258.311 255.762,256.978 255.5,255.5C 256.552,255.649 257.552,255.483 258.5,255C 261.377,250.322 263.377,250.489 264.5,255.5C 266.76,254.861 268.76,253.694 270.5,252C 271.113,249.853 271.779,247.686 272.5,245.5C 275.009,244.079 277.343,242.412 279.5,240.5C 278.675,239.614 277.675,239.281 276.5,239.5C 276.585,237.071 277.585,235.071 279.5,233.5C 278.189,232.742 277.689,231.742 278,230.5C 279.699,231.406 281.533,231.739 283.5,231.5C 284.503,227.327 286.003,223.327 288,219.5C 289,218.833 290,218.167 291,217.5C 291.33,214.511 292.164,211.678 293.5,209C 293.167,208 292.833,207 292.5,206C 296.606,199.116 299.272,191.616 300.5,183.5C 301.833,167.5 301.833,151.5 300.5,135.5C 299.272,127.384 296.606,119.884 292.5,113C 292.833,112 293.167,111 293.5,110C 292.391,107.953 291.724,105.787 291.5,103.5C 290.167,103.5 288.833,103.5 287.5,103.5C 287.291,97.865 285.958,92.5317 283.5,87.5C 281.533,87.2606 279.699,87.5939 278,88.5C 277.689,87.2575 278.189,86.2575 279.5,85.5C 277.585,83.9288 276.585,81.9288 276.5,79.5C 277.675,79.719 278.675,79.3857 279.5,78.5C 277.343,76.5879 275.009,74.9213 272.5,73.5C 271.692,71.5767 271.192,69.5767 271,67.5C 269.001,65.7468 266.835,64.4135 264.5,63.5C 263.167,60.8333 263.167,58.1667 264.5,55.5C 261.455,55.4921 258.455,55.1587 255.5,54.5C 255.67,53.1779 255.337,52.0113 254.5,51C 250.03,48.2593 245.696,45.2593 241.5,42C 238.687,42.3456 236.021,41.5122 233.5,39.5C 232.749,40.376 232.249,41.376 232,42.5C 231.814,40.0995 231.314,37.7662 230.5,35.5C 225.872,32.7598 220.872,31.4265 215.5,31.5C 215.286,27.6089 213.12,25.6089 209,25.5C 208.228,25.6448 207.561,25.9781 207,26.5C 202.383,23.2421 197.216,21.9088 191.5,22.5C 191.5,21.5 191.5,20.5 191.5,19.5C 180.913,17.8564 170.247,16.8564 159.5,16.5C 148.753,16.8564 138.087,17.8564 127.5,19.5C 127.5,20.5 127.5,21.5 127.5,22.5C 124.813,22.3359 122.146,22.5026 119.5,23C 114.389,25.4454 109.056,27.2788 103.5,28.5C 103.5,29.5 103.5,30.5 103.5,31.5C 98.1276,31.4265 93.1276,32.7598 88.5,35.5C 87.6858,37.7662 87.1858,40.0995 87,42.5C 86.7508,41.376 86.2508,40.376 85.5,39.5C 81.9392,41.8299 78.2725,43.3299 74.5,44C 71.9454,48.4623 68.2788,51.7956 63.5,54C 65.7078,54.1909 67.7078,54.6909 69.5,55.5C 66.1501,55.335 62.8168,55.5017 59.5,56C 57.7427,57.7495 55.7427,58.9162 53.5,59.5C 51.8056,62.1813 49.6389,64.5146 47,66.5C 45.9546,73.7508 44.4546,80.7508 42.5,87.5C 41.7677,86.1917 40.9344,84.8584 40,83.5C 39.3162,84.7839 39.4829,85.9505 40.5,87C 38.8659,87.4935 37.1992,87.6602 35.5,87.5C 33.0423,92.5317 31.709,97.865 31.5,103.5C 30.1667,103.5 28.8333,103.5 27.5,103.5C 27.2761,105.787 26.6094,107.953 25.5,110C 25.8333,111 26.1667,112 26.5,113C 22.3944,119.884 19.7277,127.384 18.5,135.5C 17.1667,151.5 17.1667,167.5 18.5,183.5C 19.7277,191.616 22.3944,199.116 26.5,206C 26.1667,207 25.8333,208 25.5,209C 26.6094,211.047 27.2761,213.213 27.5,215.5C 28.8333,215.5 30.1667,215.5 31.5,215.5C 32.6976,220.807 34.0309,226.14 35.5,231.5C 37.4672,231.739 39.3005,231.406 41,230.5C 41.3114,231.742 40.8114,232.742 39.5,233.5C 41.415,235.071 42.415,237.071 42.5,239.5C 41.325,239.281 40.325,239.614 39.5,240.5C 41.6572,242.412 43.9906,244.079 46.5,245.5C 47.3078,247.423 47.8078,249.423 48,251.5C 49.9985,253.253 52.1652,254.587 54.5,255.5C 55.6228,250.489 57.6228,250.322 60.5,255C 61.448,255.483 62.448,255.649 63.5,255.5C 63.238,256.978 63.5713,258.311 64.5,259.5C 69.2767,261.813 69.2767,263.479 64.5,264.5C 63.4173,265.365 63.2506,266.365 64,267.5C 68.5501,270.531 73.0501,273.698 77.5,277C 79.5544,276.417 81.5544,276.917 83.5,278.5C 78.7581,281.312 75.4248,285.312 73.5,290.5C 74.2458,291.736 74.5792,293.07 74.5,294.5C 75.8333,294.5 77.1667,294.5 78.5,294.5C 78.5,295.5 78.5,296.5 78.5,297.5C 33.1533,270.17 6.81998,230.17 -0.5,177.5C -0.5,165.5 -0.5,153.5 -0.5,141.5C 10.2025,73.9694 47.8692,28.8028 112.5,6C 122.17,3.23573 131.837,1.06906 141.5,-0.5 Z"/></g>
<g><path style="opacity:1" fill="#744fbd" d="M 228.5,291.5 C 225.292,290.623 222.292,289.289 219.5,287.5C 217.984,284.467 215.984,281.8 213.5,279.5C 217.857,274.819 223.191,271.819 229.5,270.5C 231.173,268.477 231.84,266.144 231.5,263.5C 234.167,263.5 236.833,263.5 239.5,263.5C 239.281,262.325 239.614,261.325 240.5,260.5C 244.409,258.686 246.909,255.686 248,251.5C 249.989,249.161 252.489,247.827 255.5,247.5C 255.281,246.325 255.614,245.325 256.5,244.5C 262.207,242.052 264.541,237.718 263.5,231.5C 265.604,231.799 267.604,231.466 269.5,230.5C 270.82,228.174 272.487,226.174 274.5,224.5C 273.675,223.614 272.675,223.281 271.5,223.5C 271.076,217.304 271.909,211.304 274,205.5C 276.799,204.227 278.633,202.227 279.5,199.5C 275.7,199.181 275.534,198.181 279,196.5C 279.499,192.179 279.666,187.846 279.5,183.5C 280.5,183.5 281.5,183.5 282.5,183.5C 285.167,167.5 285.167,151.5 282.5,135.5C 281.5,135.5 280.5,135.5 279.5,135.5C 279.666,131.154 279.499,126.821 279,122.5C 275.534,120.819 275.7,119.819 279.5,119.5C 278.633,116.773 276.799,114.773 274,113.5C 271.909,107.696 271.076,101.696 271.5,95.5C 272.675,95.719 273.675,95.3857 274.5,94.5C 272.487,92.8259 270.82,90.8259 269.5,88.5C 267.922,87.7022 266.256,87.2022 264.5,87C 262.821,84.794 261.821,82.294 261.5,79.5C 262.681,75.5073 263.514,71.5073 264,67.5C 261.56,64.1819 258.727,61.1819 255.5,58.5C 254.264,57.7542 252.93,57.4208 251.5,57.5C 251.5,58.8333 251.5,60.1667 251.5,61.5C 250.5,61.5 249.5,61.5 248.5,61.5C 245.697,60.0721 242.697,59.4054 239.5,59.5C 237.678,57.7657 235.345,56.7657 232.5,56.5C 231.922,53.6313 230.922,50.9647 229.5,48.5C 220.918,48.916 213.585,46.2494 207.5,40.5C 202.248,39.1769 196.915,38.5102 191.5,38.5C 191.5,37.5 191.5,36.5 191.5,35.5C 188.833,35.5 186.167,35.5 183.5,35.5C 183.67,34.1779 183.337,33.0113 182.5,32C 180.19,31.5034 177.857,31.3367 175.5,31.5C 175.5,30.5 175.5,29.5 175.5,28.5C 164.833,27.1667 154.167,27.1667 143.5,28.5C 143.5,29.5 143.5,30.5 143.5,31.5C 141.143,31.3367 138.81,31.5034 136.5,32C 135.663,33.0113 135.33,34.1779 135.5,35.5C 132.833,35.5 130.167,35.5 127.5,35.5C 127.5,36.5 127.5,37.5 127.5,38.5C 120.135,38.788 112.802,39.4547 105.5,40.5C 102.19,42.4821 99.1897,44.8154 96.5,47.5C 95.7492,46.624 95.2492,45.624 95,44.5C 90.2841,46.5425 87.4507,50.0425 86.5,55C 84.6194,54.904 82.9527,55.0707 81.5,55.5C 77.5213,54.3749 73.5213,54.3749 69.5,55.5C 67.7078,54.6909 65.7078,54.1909 63.5,54C 68.2788,51.7956 71.9454,48.4623 74.5,44C 78.2725,43.3299 81.9392,41.8299 85.5,39.5C 86.2508,40.376 86.7508,41.376 87,42.5C 87.1858,40.0995 87.6858,37.7662 88.5,35.5C 93.1276,32.7598 98.1276,31.4265 103.5,31.5C 103.5,30.5 103.5,29.5 103.5,28.5C 109.056,27.2788 114.389,25.4454 119.5,23C 122.146,22.5026 124.813,22.3359 127.5,22.5C 127.5,21.5 127.5,20.5 127.5,19.5C 138.087,17.8564 148.753,16.8564 159.5,16.5C 170.247,16.8564 180.913,17.8564 191.5,19.5C 191.5,20.5 191.5,21.5 191.5,22.5C 197.216,21.9088 202.383,23.2421 207,26.5C 207.561,25.9781 208.228,25.6448 209,25.5C 213.12,25.6089 215.286,27.6089 215.5,31.5C 220.872,31.4265 225.872,32.7598 230.5,35.5C 231.314,37.7662 231.814,40.0995 232,42.5C 232.249,41.376 232.749,40.376 233.5,39.5C 236.021,41.5122 238.687,42.3456 241.5,42C 245.696,45.2593 250.03,48.2593 254.5,51C 255.337,52.0113 255.67,53.1779 255.5,54.5C 258.455,55.1587 261.455,55.4921 264.5,55.5C 263.167,58.1667 263.167,60.8333 264.5,63.5C 266.835,64.4135 269.001,65.7468 271,67.5C 271.192,69.5767 271.692,71.5767 272.5,73.5C 275.009,74.9213 277.343,76.5879 279.5,78.5C 278.675,79.3857 277.675,79.719 276.5,79.5C 276.585,81.9288 277.585,83.9288 279.5,85.5C 278.189,86.2575 277.689,87.2575 278,88.5C 279.699,87.5939 281.533,87.2606 283.5,87.5C 285.958,92.5317 287.291,97.865 287.5,103.5C 288.833,103.5 290.167,103.5 291.5,103.5C 291.724,105.787 292.391,107.953 293.5,110C 293.167,111 292.833,112 292.5,113C 296.606,119.884 299.272,127.384 300.5,135.5C 301.833,151.5 301.833,167.5 300.5,183.5C 299.272,191.616 296.606,199.116 292.5,206C 292.833,207 293.167,208 293.5,209C 292.164,211.678 291.33,214.511 291,217.5C 290,218.167 289,218.833 288,219.5C 286.003,223.327 284.503,227.327 283.5,231.5C 281.533,231.739 279.699,231.406 278,230.5C 277.689,231.742 278.189,232.742 279.5,233.5C 277.585,235.071 276.585,237.071 276.5,239.5C 277.675,239.281 278.675,239.614 279.5,240.5C 277.343,242.412 275.009,244.079 272.5,245.5C 271.779,247.686 271.113,249.853 270.5,252C 268.76,253.694 266.76,254.861 264.5,255.5C 263.377,250.489 261.377,250.322 258.5,255C 257.552,255.483 256.552,255.649 255.5,255.5C 255.762,256.978 255.429,258.311 254.5,259.5C 249.723,261.813 249.723,263.479 254.5,264.5C 255.583,265.365 255.749,266.365 255,267.5C 250.117,270.697 245.284,274.031 240.5,277.5C 239.914,277.291 239.414,276.957 239,276.5C 235.881,278.664 232.714,279.997 229.5,280.5C 230.376,281.251 231.376,281.751 232.5,282C 231.427,283.25 231.427,284.584 232.5,286C 232.333,286.5 232.167,287 232,287.5C 230.989,286.663 229.822,286.33 228.5,286.5C 228.833,283.5 227.5,282.167 224.5,282.5C 224.5,283.833 224.5,285.167 224.5,286.5C 227.91,286.384 229.244,288.05 228.5,291.5 Z"/></g>
<g><path style="opacity:1" fill="#7854c2" d="M 239.5,59.5 C 234.637,59.1805 229.97,59.5139 225.5,60.5C 223.883,61.038 222.216,61.3713 220.5,61.5C 217.482,61.7038 214.482,62.0371 211.5,62.5C 206.883,63.0238 203.383,61.3571 201,57.5C 199.422,58.5472 197.922,58.5472 196.5,57.5C 196.833,56.8333 197.167,56.1667 197.5,55.5C 195.604,54.5344 193.604,54.2011 191.5,54.5C 191.5,52.5 191.5,50.5 191.5,48.5C 172.85,47.6115 154.183,47.2781 135.5,47.5C 135.5,48.8333 135.5,50.1667 135.5,51.5C 132.833,51.5 130.167,51.5 127.5,51.5C 127.5,52.5 127.5,53.5 127.5,54.5C 121.816,54.7425 116.149,55.2425 110.5,56C 105.819,57.728 101.485,59.8947 97.5,62.5C 95.513,61.8358 93.8463,60.6692 92.5,59C 88.2746,59.093 84.6079,57.9263 81.5,55.5C 82.9527,55.0707 84.6194,54.904 86.5,55C 87.4507,50.0425 90.2841,46.5425 95,44.5C 95.2492,45.624 95.7492,46.624 96.5,47.5C 99.1897,44.8154 102.19,42.4821 105.5,40.5C 112.802,39.4547 120.135,38.788 127.5,38.5C 127.5,37.5 127.5,36.5 127.5,35.5C 130.167,35.5 132.833,35.5 135.5,35.5C 135.33,34.1779 135.663,33.0113 136.5,32C 138.81,31.5034 141.143,31.3367 143.5,31.5C 143.5,30.5 143.5,29.5 143.5,28.5C 154.167,27.1667 164.833,27.1667 175.5,28.5C 175.5,29.5 175.5,30.5 175.5,31.5C 177.857,31.3367 180.19,31.5034 182.5,32C 183.337,33.0113 183.67,34.1779 183.5,35.5C 186.167,35.5 188.833,35.5 191.5,35.5C 191.5,36.5 191.5,37.5 191.5,38.5C 196.915,38.5102 202.248,39.1769 207.5,40.5C 213.585,46.2494 220.918,48.916 229.5,48.5C 230.922,50.9647 231.922,53.6313 232.5,56.5C 235.345,56.7657 237.678,57.7657 239.5,59.5 Z"/></g>
<g><path style="opacity:1" fill="#735ab4" d="M 81.5,55.5 C 84.6079,57.9263 88.2746,59.093 92.5,59C 93.8463,60.6692 95.513,61.8358 97.5,62.5C 97.5,62.8333 97.5,63.1667 97.5,63.5C 94.4262,62.6976 91.4262,61.6976 88.5,60.5C 85.5827,59.5826 82.5827,58.916 79.5,58.5C 73.6812,57.3475 67.6812,57.1808 61.5,58C 60.5842,58.2784 59.9175,58.7784 59.5,59.5C 58.8333,59.5 58.1667,59.5 57.5,59.5C 56.1667,59.5 54.8333,59.5 53.5,59.5C 55.7427,58.9162 57.7427,57.7495 59.5,56C 62.8168,55.5017 66.1501,55.335 69.5,55.5C 73.5213,54.3749 77.5213,54.3749 81.5,55.5 Z"/></g>
<g><path style="opacity:1" fill="#7d5ac7" d="M 211.5,62.5 C 205.754,66.1948 199.42,68.5281 192.5,69.5C 184.11,68.5569 175.777,67.5569 167.5,66.5C 163.514,65.8343 159.347,65.501 155,65.5C 148.269,65.3534 141.769,66.0201 135.5,67.5C 131.141,67.4657 126.808,67.799 122.5,68.5C 115.514,67.1619 108.514,66.1619 101.5,65.5C 100.395,64.3995 99.0618,63.7329 97.5,63.5C 97.5,63.1667 97.5,62.8333 97.5,62.5C 101.485,59.8947 105.819,57.728 110.5,56C 116.149,55.2425 121.816,54.7425 127.5,54.5C 127.5,53.5 127.5,52.5 127.5,51.5C 130.167,51.5 132.833,51.5 135.5,51.5C 135.5,50.1667 135.5,48.8333 135.5,47.5C 154.183,47.2781 172.85,47.6115 191.5,48.5C 191.5,50.5 191.5,52.5 191.5,54.5C 193.604,54.2011 195.604,54.5344 197.5,55.5C 197.167,56.1667 196.833,56.8333 196.5,57.5C 197.922,58.5472 199.422,58.5472 201,57.5C 203.383,61.3571 206.883,63.0238 211.5,62.5 Z"/></g>
<g><path style="opacity:1" fill="#cad5f1" d="M 79.5,58.5 C 72.8039,58.391 66.1373,58.7243 59.5,59.5C 59.9175,58.7784 60.5842,58.2784 61.5,58C 67.6812,57.1808 73.6812,57.3475 79.5,58.5 Z"/></g>
<g><path style="opacity:1" fill="#7465ae" d="M 225.5,60.5 C 229.97,59.5139 234.637,59.1805 239.5,59.5C 242.697,59.4054 245.697,60.0721 248.5,61.5C 250.25,62.6594 251.25,64.326 251.5,66.5C 250.078,65.075 248.411,64.075 246.5,63.5C 244.524,61.9891 242.191,61.1558 239.5,61C 234.845,60.5008 230.179,60.3342 225.5,60.5 Z"/></g>
<g><path style="opacity:1" fill="#d8e2f7" d="M 225.5,60.5 C 230.179,60.3342 234.845,60.5008 239.5,61C 242.191,61.1558 244.524,61.9891 246.5,63.5C 236.833,62.1667 227.167,62.1667 217.5,63.5C 218.5,62.8333 219.5,62.1667 220.5,61.5C 222.216,61.3713 223.883,61.038 225.5,60.5 Z"/></g>
<g><path style="opacity:1" fill="#7c70b8" d="M 167.5,66.5 C 156.815,66.3897 146.148,66.723 135.5,67.5C 141.769,66.0201 148.269,65.3534 155,65.5C 159.347,65.501 163.514,65.8343 167.5,66.5 Z"/></g>
<g><path style="opacity:1" fill="#7b67bb" d="M 101.5,65.5 C 108.514,66.1619 115.514,67.1619 122.5,68.5C 126.808,67.799 131.141,67.4657 135.5,67.5C 130.139,68.7057 124.806,70.0391 119.5,71.5C 112.667,71.6339 106.667,69.6339 101.5,65.5 Z"/></g>
<g><path style="opacity:1" fill="#bed0ea" d="M 215.5,63.5 C 211.012,67.4028 205.679,69.7361 199.5,70.5C 204.531,67.6554 209.864,65.3221 215.5,63.5 Z"/></g>
<g><path style="opacity:1" fill="#d8e1f9" d="M 88.5,60.5 C 91.4262,61.6976 94.4262,62.6976 97.5,63.5C 99.0618,63.7329 100.395,64.3995 101.5,65.5C 106.667,69.6339 112.667,71.6339 119.5,71.5C 116.696,72.6378 113.696,72.8045 110.5,72C 104.101,68.4683 97.4342,65.4683 90.5,63C 89.6195,62.2917 88.9528,61.4584 88.5,60.5 Z"/></g>
<g><path style="opacity:1" fill="#cde1ec" d="M 167.5,66.5 C 172.88,67.6262 178.213,68.9595 183.5,70.5C 173.258,68.9255 162.925,68.2588 152.5,68.5C 141.562,70.106 130.562,71.106 119.5,71.5C 124.806,70.0391 130.139,68.7057 135.5,67.5C 146.148,66.723 156.815,66.3897 167.5,66.5 Z"/></g>
<g><path style="opacity:1" fill="#7866bb" d="M 220.5,61.5 C 219.5,62.1667 218.5,62.8333 217.5,63.5C 216.833,63.5 216.167,63.5 215.5,63.5C 209.864,65.3221 204.531,67.6554 199.5,70.5C 197.717,71.455 195.717,72.1217 193.5,72.5C 190.148,71.8308 186.815,71.1642 183.5,70.5C 178.213,68.9595 172.88,67.6262 167.5,66.5C 175.777,67.5569 184.11,68.5569 192.5,69.5C 199.42,68.5281 205.754,66.1948 211.5,62.5C 214.482,62.0371 217.482,61.7038 220.5,61.5 Z"/></g>
<g><path style="opacity:1" fill="#7668b4" d="M 252.5,67.5 C 253.496,67.4142 254.329,67.7476 255,68.5C 259.462,75.5766 261.295,83.4099 260.5,92C 260.333,97.1667 260.167,102.333 260,107.5C 259.484,110.547 257.984,112.88 255.5,114.5C 259.12,104.516 260.453,94.1829 259.5,83.5C 259.741,81.1016 259.074,79.1016 257.5,77.5C 256.723,73.7225 255.056,70.3892 252.5,67.5 Z"/></g>
<g><path style="opacity:1" fill="#cbefdf" d="M 79.5,58.5 C 82.5827,58.916 85.5827,59.5826 88.5,60.5C 88.9528,61.4584 89.6195,62.2917 90.5,63C 97.4342,65.4683 104.101,68.4683 110.5,72C 113.696,72.8045 116.696,72.6378 119.5,71.5C 130.562,71.106 141.562,70.106 152.5,68.5C 153.6,69.5585 154.934,70.3918 156.5,71C 152.531,71.8527 148.531,72.5193 144.5,73C 143.663,74.0113 143.33,75.1779 143.5,76.5C 141.099,77.0488 138.765,77.8822 136.5,79C 137.5,79.3333 138.5,79.6667 139.5,80C 138.736,82.0693 138.236,84.236 138,86.5C 135.788,89.0024 134.955,92.0024 135.5,95.5C 136.833,95.5 138.167,95.5 139.5,95.5C 139.586,97.677 140.253,99.677 141.5,101.5C 144.571,102.785 147.404,104.451 150,106.5C 151.438,108.798 152.271,110.965 152.5,113C 157.61,113.857 162.61,115.024 167.5,116.5C 167.5,117.5 167.5,118.5 167.5,119.5C 169.401,119.433 171.234,119.767 173,120.5C 176.338,123.506 179.672,126.506 183,129.5C 183.498,132.482 183.665,135.482 183.5,138.5C 185.39,138.297 186.89,138.963 188,140.5C 189.93,144.129 191.764,147.795 193.5,151.5C 194.861,149.972 196.028,148.305 197,146.5C 197.671,147.252 198.504,147.586 199.5,147.5C 198.969,150.888 200.303,152.888 203.5,153.5C 207.469,158.671 211.302,158.338 215,152.5C 217.746,155.025 220.58,155.025 223.5,152.5C 221.726,151.813 220.059,150.98 218.5,150C 221,147.681 222.334,144.847 222.5,141.5C 221.053,136.936 220.387,132.269 220.5,127.5C 221.5,127.5 222.5,127.5 223.5,127.5C 223.5,124.833 223.5,122.167 223.5,119.5C 225.857,119.663 228.19,119.497 230.5,119C 231.337,117.989 231.67,116.822 231.5,115.5C 235.167,115.5 238.833,115.5 242.5,115.5C 242.5,114.167 242.5,112.833 242.5,111.5C 248.842,112.33 252.842,109.663 254.5,103.5C 254.833,104.333 255.167,105.167 255.5,106C 254.685,110.58 253.685,115.08 252.5,119.5C 252.011,120.995 251.345,122.329 250.5,123.5C 247.677,127.26 247.843,130.926 251,134.5C 251.031,138.486 252.031,142.152 254,145.5C 254.293,150.688 255.127,155.688 256.5,160.5C 256.662,162.527 256.495,164.527 256,166.5C 254.692,164.359 253.192,162.359 251.5,160.5C 250.264,159.754 248.93,159.421 247.5,159.5C 247.5,158.5 247.5,157.5 247.5,156.5C 236.574,155.322 226.241,157.156 216.5,162C 207.9,167.755 198.567,171.922 188.5,174.5C 191.48,172.34 194.48,170.173 197.5,168C 196.552,167.517 195.552,167.351 194.5,167.5C 194.649,166.448 194.483,165.448 194,164.5C 190.769,160.631 187.435,156.965 184,153.5C 183.667,153.833 183.333,154.167 183,154.5C 180,148.167 177,141.833 174,135.5C 169.423,134.307 167.256,131.307 167.5,126.5C 163.068,125.981 160.401,123.648 159.5,119.5C 157.04,119.301 154.707,118.635 152.5,117.5C 151.252,115.541 149.585,114.041 147.5,113C 142.437,110.087 137.104,107.921 131.5,106.5C 131.329,108.993 132.329,110.826 134.5,112C 132.099,112.805 132.266,113.638 135,114.5C 135.688,115.332 135.521,115.998 134.5,116.5C 131.696,114.862 129.029,113.029 126.5,111C 124.553,107.93 122.053,105.43 119,103.5C 118.246,98.7013 117.079,94.0346 115.5,89.5C 114.15,88.0499 112.484,87.3832 110.5,87.5C 110.983,85.6957 110.316,84.029 108.5,82.5C 108.801,77.8399 106.801,74.1732 102.5,71.5C 98.0704,69.5815 93.737,67.4148 89.5,65C 78.1285,63.2615 67.4619,61.7615 57.5,60.5C 57.5,60.1667 57.5,59.8333 57.5,59.5C 58.1667,59.5 58.8333,59.5 59.5,59.5C 66.1373,58.7243 72.8039,58.391 79.5,58.5 Z"/></g>
<g><path style="opacity:1" fill="#a2a4ce" d="M 257.5,77.5 C 259.074,79.1016 259.741,81.1016 259.5,83.5C 257.926,81.8984 257.259,79.8984 257.5,77.5 Z"/></g>
<g><path style="opacity:1" fill="#7550be" d="M 42.5,87.5 C 42.7164,93.0996 43.7164,98.433 45.5,103.5C 45.8333,103.5 46.1667,103.5 46.5,103.5C 45.889,108.618 47.0557,113.285 50,117.5C 49.8005,121.697 50.9671,125.363 53.5,128.5C 50.9035,130.1 49.5702,132.433 49.5,135.5C 48.5,135.5 47.5,135.5 46.5,135.5C 46.6782,140.039 46.3449,144.539 45.5,149C 46.3985,151.094 47.0651,153.26 47.5,155.5C 46.4147,167.817 46.248,180.151 47,192.5C 47.2784,193.416 47.7784,194.082 48.5,194.5C 48.1201,196.698 48.7868,198.365 50.5,199.5C 51.3092,201.028 51.9759,202.694 52.5,204.5C 53.9574,209.756 55.1241,215.089 56,220.5C 58.8636,224.271 61.6969,227.937 64.5,231.5C 65.1499,231.804 65.8165,232.137 66.5,232.5C 67.9212,235.679 69.5878,238.679 71.5,241.5C 72.9339,244.111 74.6006,246.611 76.5,249C 74.9712,250.582 74.4712,252.415 75,254.5C 75.6739,253.422 76.6739,252.755 78,252.5C 79.825,252.943 81.6583,253.277 83.5,253.5C 83.5,254.5 83.5,255.5 83.5,256.5C 86.7927,257.809 90.126,259.142 93.5,260.5C 95.2228,262.218 97.2228,263.551 99.5,264.5C 101.887,266.889 104.554,268.889 107.5,270.5C 106.918,274.582 104.585,276.749 100.5,277C 99.2899,278.039 98.2899,279.206 97.5,280.5C 91.8121,284.188 87.1454,288.855 83.5,294.5C 81.1667,294.833 79.8333,296.167 79.5,298.5C 78.8333,298.5 78.5,298.167 78.5,297.5C 78.5,296.5 78.5,295.5 78.5,294.5C 77.1667,294.5 75.8333,294.5 74.5,294.5C 74.5792,293.07 74.2458,291.736 73.5,290.5C 75.4248,285.312 78.7581,281.312 83.5,278.5C 81.5544,276.917 79.5544,276.417 77.5,277C 73.0501,273.698 68.5501,270.531 64,267.5C 63.2506,266.365 63.4173,265.365 64.5,264.5C 69.2767,263.479 69.2767,261.813 64.5,259.5C 63.5713,258.311 63.238,256.978 63.5,255.5C 62.448,255.649 61.448,255.483 60.5,255C 57.6228,250.322 55.6228,250.489 54.5,255.5C 52.1652,254.587 49.9985,253.253 48,251.5C 47.8078,249.423 47.3078,247.423 46.5,245.5C 43.9906,244.079 41.6572,242.412 39.5,240.5C 40.325,239.614 41.325,239.281 42.5,239.5C 42.415,237.071 41.415,235.071 39.5,233.5C 40.8114,232.742 41.3114,231.742 41,230.5C 39.3005,231.406 37.4672,231.739 35.5,231.5C 34.0309,226.14 32.6976,220.807 31.5,215.5C 30.1667,215.5 28.8333,215.5 27.5,215.5C 27.2761,213.213 26.6094,211.047 25.5,209C 25.8333,208 26.1667,207 26.5,206C 22.3944,199.116 19.7277,191.616 18.5,183.5C 17.1667,167.5 17.1667,151.5 18.5,135.5C 19.7277,127.384 22.3944,119.884 26.5,113C 26.1667,112 25.8333,111 25.5,110C 26.6094,107.953 27.2761,105.787 27.5,103.5C 28.8333,103.5 30.1667,103.5 31.5,103.5C 31.709,97.865 33.0423,92.5317 35.5,87.5C 37.1992,87.6602 38.8659,87.4935 40.5,87C 39.4829,85.9505 39.3162,84.7839 40,83.5C 40.9344,84.8584 41.7677,86.1917 42.5,87.5 Z"/></g>
<g><path style="opacity:1" fill="#5b938e" d="M 47.5,75.5 C 46.6932,81.4638 46.3599,87.4638 46.5,93.5C 45.5166,89.7016 45.1832,85.7016 45.5,81.5C 45.595,79.2143 46.2616,77.2143 47.5,75.5 Z"/></g>
<g><path style="opacity:1" fill="#b3e7d3" d="M 57.5,60.5 C 67.4619,61.7615 78.1285,63.2615 89.5,65C 93.737,67.4148 98.0704,69.5815 102.5,71.5C 106.801,74.1732 108.801,77.8399 108.5,82.5C 110.316,84.029 110.983,85.6957 110.5,87.5C 113.205,93.269 115.538,99.269 117.5,105.5C 126.968,114.812 137.134,123.145 148,130.5C 147.852,131.825 148.018,132.992 148.5,134C 143.342,134.048 140.675,136.548 140.5,141.5C 139.292,140.766 137.959,140.433 136.5,140.5C 135.852,138.914 135.352,137.247 135,135.5C 129.78,132.782 125.113,128.782 121,123.5C 120.586,123.957 120.086,124.291 119.5,124.5C 116.763,122.726 114.096,121.059 111.5,119.5C 111.509,117.692 111.009,116.025 110,114.5C 105.518,108.527 100.018,103.86 93.5,100.5C 90.5491,101.357 87.5491,101.357 84.5,100.5C 84.5,101.833 84.5,103.167 84.5,104.5C 79.6421,105.596 75.3088,107.762 71.5,111C 69.8659,111.494 68.1992,111.66 66.5,111.5C 64.6075,110.298 62.7742,108.965 61,107.5C 59.7604,104.588 58.0937,101.921 56,99.5C 55.5827,93.9922 55.0827,88.4922 54.5,83C 54.6276,79.3234 55.4609,75.8234 57,72.5C 58.7342,70.5494 60.9009,69.5494 63.5,69.5C 58.4526,74.2874 56.1192,80.2874 56.5,87.5C 56.6667,90.1667 56.8333,92.8333 57,95.5C 59.4682,99.7746 61.6349,104.108 63.5,108.5C 67.3834,108.891 71.05,108.224 74.5,106.5C 83.1487,99.6848 90.9821,92.0181 98,83.5C 98.6667,81.8333 98.6667,80.1667 98,78.5C 94.5878,75.7335 91.0878,73.4002 87.5,71.5C 91.6918,72.5081 95.6918,74.0081 99.5,76C 100.46,77.4194 101.293,78.9194 102,80.5C 104.01,77.3449 103.51,74.5116 100.5,72C 93.4159,68.5864 86.0825,65.9197 78.5,64C 71.3395,62.8289 64.5062,63.6622 58,66.5C 55.1549,64.5257 53.3216,65.1924 52.5,68.5C 50.8333,69.5 49.5,70.8333 48.5,72.5C 48.1667,72.5 47.8333,72.5 47.5,72.5C 48.9721,66.8563 52.3054,62.8563 57.5,60.5 Z"/></g>
<g><path style="opacity:1" fill="#ecedea" d="M 87.5,71.5 C 91.0878,73.4002 94.5878,75.7335 98,78.5C 98.6667,80.1667 98.6667,81.8333 98,83.5C 90.9821,92.0181 83.1487,99.6848 74.5,106.5C 71.05,108.224 67.3834,108.891 63.5,108.5C 61.6349,104.108 59.4682,99.7746 57,95.5C 56.8333,92.8333 56.6667,90.1667 56.5,87.5C 56.1192,80.2874 58.4526,74.2874 63.5,69.5C 71.8099,67.8065 79.8099,68.4731 87.5,71.5 Z"/></g>
<g><path style="opacity:1" fill="#d6f3e6" d="M 246.5,63.5 C 248.411,64.075 250.078,65.075 251.5,66.5C 252.167,66.5 252.5,66.8333 252.5,67.5C 255.056,70.3892 256.723,73.7225 257.5,77.5C 257.259,79.8984 257.926,81.8984 259.5,83.5C 260.453,94.1829 259.12,104.516 255.5,114.5C 254.687,116.261 253.687,117.928 252.5,119.5C 253.685,115.08 254.685,110.58 255.5,106C 255.167,105.167 254.833,104.333 254.5,103.5C 252.842,109.663 248.842,112.33 242.5,111.5C 242.5,112.833 242.5,114.167 242.5,115.5C 238.833,115.5 235.167,115.5 231.5,115.5C 231.67,116.822 231.337,117.989 230.5,119C 228.19,119.497 225.857,119.663 223.5,119.5C 223.5,122.167 223.5,124.833 223.5,127.5C 222.5,127.5 221.5,127.5 220.5,127.5C 220.387,132.269 221.053,136.936 222.5,141.5C 222.334,144.847 221,147.681 218.5,150C 220.059,150.98 221.726,151.813 223.5,152.5C 220.58,155.025 217.746,155.025 215,152.5C 211.302,158.338 207.469,158.671 203.5,153.5C 204.817,153.821 206.151,154.154 207.5,154.5C 210.204,153.428 212.87,152.428 215.5,151.5C 215.551,148.459 216.551,145.792 218.5,143.5C 218.033,137.093 214.7,134.927 208.5,137C 205.95,138.37 203.283,139.537 200.5,140.5C 199.526,142.743 199.192,145.076 199.5,147.5C 198.504,147.586 197.671,147.252 197,146.5C 196.028,148.305 194.861,149.972 193.5,151.5C 191.764,147.795 189.93,144.129 188,140.5C 186.89,138.963 185.39,138.297 183.5,138.5C 183.665,135.482 183.498,132.482 183,129.5C 179.672,126.506 176.338,123.506 173,120.5C 171.234,119.767 169.401,119.433 167.5,119.5C 167.5,118.5 167.5,117.5 167.5,116.5C 162.61,115.024 157.61,113.857 152.5,113C 152.271,110.965 151.438,108.798 150,106.5C 147.404,104.451 144.571,102.785 141.5,101.5C 140.253,99.677 139.586,97.677 139.5,95.5C 138.167,95.5 136.833,95.5 135.5,95.5C 134.955,92.0024 135.788,89.0024 138,86.5C 138.236,84.236 138.736,82.0693 139.5,80C 138.5,79.6667 137.5,79.3333 136.5,79C 138.765,77.8822 141.099,77.0488 143.5,76.5C 143.33,75.1779 143.663,74.0113 144.5,73C 148.531,72.5193 152.531,71.8527 156.5,71C 154.934,70.3918 153.6,69.5585 152.5,68.5C 162.925,68.2588 173.258,68.9255 183.5,70.5C 186.815,71.1642 190.148,71.8308 193.5,72.5C 195.717,72.1217 197.717,71.455 199.5,70.5C 205.679,69.7361 211.012,67.4028 215.5,63.5C 216.167,63.5 216.833,63.5 217.5,63.5C 227.167,62.1667 236.833,62.1667 246.5,63.5 Z"/></g>
<g><path style="opacity:1" fill="#f7f7f3" d="M 227.5,71.5 C 234.284,71.0796 240.95,71.5796 247.5,73C 250.77,76.8735 252.77,81.3735 253.5,86.5C 252.638,92.8074 251.805,99.1408 251,105.5C 249.139,109.007 246.305,110.173 242.5,109C 236.031,103.532 229.864,97.699 224,91.5C 220.619,87.7525 219.286,83.4192 220,78.5C 221.848,75.9586 224.348,74.9586 227.5,75.5C 227.5,74.1667 227.5,72.8333 227.5,71.5 Z"/></g>
<g><path style="opacity:1" fill="#6a849d" d="M 45.5,81.5 C 45.1832,85.7016 45.5166,89.7016 46.5,93.5C 46.5,94.1667 46.5,94.8333 46.5,95.5C 46.5,98.1667 46.5,100.833 46.5,103.5C 46.1667,103.5 45.8333,103.5 45.5,103.5C 44.5243,96.0033 44.5243,88.6699 45.5,81.5 Z"/></g>
<g><path style="opacity:1" fill="#499e79" d="M 47.5,72.5 C 47.8333,72.5 48.1667,72.5 48.5,72.5C 48.5512,81.6277 49.5512,90.6277 51.5,99.5C 50.5,99.5 49.5,99.5 48.5,99.5C 48.0113,98.0048 47.3446,96.6715 46.5,95.5C 46.5,94.8333 46.5,94.1667 46.5,93.5C 46.3599,87.4638 46.6932,81.4638 47.5,75.5C 47.5,74.5 47.5,73.5 47.5,72.5 Z"/></g>
<g><path style="opacity:1" fill="#695fa8" d="M 53.5,59.5 C 54.8333,59.5 56.1667,59.5 57.5,59.5C 57.5,59.8333 57.5,60.1667 57.5,60.5C 52.3054,62.8563 48.9721,66.8563 47.5,72.5C 47.5,73.5 47.5,74.5 47.5,75.5C 46.2616,77.2143 45.595,79.2143 45.5,81.5C 44.5243,88.6699 44.5243,96.0033 45.5,103.5C 43.7164,98.433 42.7164,93.0996 42.5,87.5C 44.4546,80.7508 45.9546,73.7508 47,66.5C 49.6389,64.5146 51.8056,62.1813 53.5,59.5 Z"/></g>
<g><path style="opacity:1" fill="#a4e3cb" d="M 136.5,140.5 C 135.733,141.172 135.066,142.005 134.5,143C 132.19,143.497 129.857,143.663 127.5,143.5C 127.649,142.448 127.483,141.448 127,140.5C 124.833,139.667 123.333,138.167 122.5,136C 121.552,135.517 120.552,135.351 119.5,135.5C 119.762,134.022 119.429,132.689 118.5,131.5C 115.09,128.712 111.59,126.045 108,123.5C 105.165,119.647 102.332,115.814 99.5,112C 93.9966,109.41 88.1632,107.91 82,107.5C 78.8681,108.993 75.7015,110.493 72.5,112C 70.2884,112.789 68.2884,112.622 66.5,111.5C 68.1992,111.66 69.8659,111.494 71.5,111C 75.3088,107.762 79.6421,105.596 84.5,104.5C 84.5,103.167 84.5,101.833 84.5,100.5C 87.5491,101.357 90.5491,101.357 93.5,100.5C 100.018,103.86 105.518,108.527 110,114.5C 111.009,116.025 111.509,117.692 111.5,119.5C 114.096,121.059 116.763,122.726 119.5,124.5C 120.086,124.291 120.586,123.957 121,123.5C 125.113,128.782 129.78,132.782 135,135.5C 135.352,137.247 135.852,138.914 136.5,140.5 Z"/></g>
<g><path style="opacity:1" fill="#7956c2" d="M 213.5,279.5 C 212.5,279.5 211.5,279.5 210.5,279.5C 209.439,277.468 207.772,276.134 205.5,275.5C 206.5,274.833 207.5,274.167 208.5,273.5C 207.754,272.264 207.421,270.93 207.5,269.5C 205.901,269.768 204.568,269.434 203.5,268.5C 208.305,265.929 212.972,263.096 217.5,260C 219.706,257.963 221.706,255.797 223.5,253.5C 223.328,252.508 223.662,251.842 224.5,251.5C 231.221,246.112 236.888,239.778 241.5,232.5C 241.5,232.167 241.5,231.833 241.5,231.5C 242.833,230.167 244.167,228.833 245.5,227.5C 247.21,225.8 249.21,224.467 251.5,223.5C 252.245,219.698 253.411,216.031 255,212.5C 255.836,215.941 256.669,216.108 257.5,213C 256.655,208.539 256.322,204.039 256.5,199.5C 257.33,194.193 257.997,188.859 258.5,183.5C 259.491,177.021 259.824,170.354 259.5,163.5C 259.212,156.135 258.545,148.802 257.5,141.5C 256.143,139.435 254.81,137.435 253.5,135.5C 253.33,133.152 252.997,130.818 252.5,128.5C 254.256,124.055 255.256,119.389 255.5,114.5C 257.984,112.88 259.484,110.547 260,107.5C 260.167,102.333 260.333,97.1667 260.5,92C 261.295,83.4099 259.462,75.5766 255,68.5C 254.329,67.7476 253.496,67.4142 252.5,67.5C 252.5,66.8333 252.167,66.5 251.5,66.5C 251.25,64.326 250.25,62.6594 248.5,61.5C 249.5,61.5 250.5,61.5 251.5,61.5C 251.5,60.1667 251.5,58.8333 251.5,57.5C 252.93,57.4208 254.264,57.7542 255.5,58.5C 258.727,61.1819 261.56,64.1819 264,67.5C 263.514,71.5073 262.681,75.5073 261.5,79.5C 261.821,82.294 262.821,84.794 264.5,87C 266.256,87.2022 267.922,87.7022 269.5,88.5C 270.82,90.8259 272.487,92.8259 274.5,94.5C 273.675,95.3857 272.675,95.719 271.5,95.5C 271.076,101.696 271.909,107.696 274,113.5C 276.799,114.773 278.633,116.773 279.5,119.5C 275.7,119.819 275.534,120.819 279,122.5C 279.499,126.821 279.666,131.154 279.5,135.5C 280.5,135.5 281.5,135.5 282.5,135.5C 285.167,151.5 285.167,167.5 282.5,183.5C 281.5,183.5 280.5,183.5 279.5,183.5C 279.666,187.846 279.499,192.179 279,196.5C 275.534,198.181 275.7,199.181 279.5,199.5C 278.633,202.227 276.799,204.227 274,205.5C 271.909,211.304 271.076,217.304 271.5,223.5C 272.675,223.281 273.675,223.614 274.5,224.5C 272.487,226.174 270.82,228.174 269.5,230.5C 267.604,231.466 265.604,231.799 263.5,231.5C 264.541,237.718 262.207,242.052 256.5,244.5C 255.614,245.325 255.281,246.325 255.5,247.5C 252.489,247.827 249.989,249.161 248,251.5C 246.909,255.686 244.409,258.686 240.5,260.5C 239.614,261.325 239.281,262.325 239.5,263.5C 236.833,263.5 234.167,263.5 231.5,263.5C 231.84,266.144 231.173,268.477 229.5,270.5C 223.191,271.819 217.857,274.819 213.5,279.5 Z"/></g>
<g><path style="opacity:1" fill="#c3ecda" d="M 110.5,87.5 C 112.484,87.3832 114.15,88.0499 115.5,89.5C 117.079,94.0346 118.246,98.7013 119,103.5C 122.053,105.43 124.553,107.93 126.5,111C 129.029,113.029 131.696,114.862 134.5,116.5C 135.521,115.998 135.688,115.332 135,114.5C 132.266,113.638 132.099,112.805 134.5,112C 132.329,110.826 131.329,108.993 131.5,106.5C 137.104,107.921 142.437,110.087 147.5,113C 149.585,114.041 151.252,115.541 152.5,117.5C 154.707,118.635 157.04,119.301 159.5,119.5C 160.401,123.648 163.068,125.981 167.5,126.5C 167.256,131.307 169.423,134.307 174,135.5C 177,141.833 180,148.167 183,154.5C 183.333,154.167 183.667,153.833 184,153.5C 187.435,156.965 190.769,160.631 194,164.5C 194.483,165.448 194.649,166.448 194.5,167.5C 195.552,167.351 196.552,167.517 197.5,168C 194.48,170.173 191.48,172.34 188.5,174.5C 181.465,174.674 174.465,174.341 167.5,173.5C 167.5,172.833 167.5,172.167 167.5,171.5C 173.05,171.237 178.55,171.57 184,172.5C 187.383,171.026 187.217,169.693 183.5,168.5C 179.5,163.167 175.5,157.833 171.5,152.5C 168.17,150.828 165.503,151.495 163.5,154.5C 161.955,155.452 160.288,155.785 158.5,155.5C 158.167,154.833 157.833,154.167 157.5,153.5C 158.5,153.5 159.5,153.5 160.5,153.5C 166.497,149.948 166.83,145.781 161.5,141C 156.009,137.461 150.009,136.128 143.5,137C 141.963,138.11 141.297,139.61 141.5,141.5C 141.167,141.5 140.833,141.5 140.5,141.5C 140.675,136.548 143.342,134.048 148.5,134C 148.018,132.992 147.852,131.825 148,130.5C 137.134,123.145 126.968,114.812 117.5,105.5C 115.538,99.269 113.205,93.269 110.5,87.5 Z"/></g>
<g><path style="opacity:1" fill="#95dcbf" d="M 87.5,71.5 C 79.8099,68.4731 71.8099,67.8065 63.5,69.5C 60.9009,69.5494 58.7342,70.5494 57,72.5C 55.4609,75.8234 54.6276,79.3234 54.5,83C 55.0827,88.4922 55.5827,93.9922 56,99.5C 58.0937,101.921 59.7604,104.588 61,107.5C 62.7742,108.965 64.6075,110.298 66.5,111.5C 68.2884,112.622 70.2884,112.789 72.5,112C 75.7015,110.493 78.8681,108.993 82,107.5C 88.1632,107.91 93.9966,109.41 99.5,112C 102.332,115.814 105.165,119.647 108,123.5C 111.59,126.045 115.09,128.712 118.5,131.5C 119.429,132.689 119.762,134.022 119.5,135.5C 120.552,135.351 121.552,135.517 122.5,136C 123.333,138.167 124.833,139.667 127,140.5C 127.483,141.448 127.649,142.448 127.5,143.5C 129.857,143.663 132.19,143.497 134.5,143C 135.066,142.005 135.733,141.172 136.5,140.5C 137.959,140.433 139.292,140.766 140.5,141.5C 140.833,142.167 141.167,142.833 141.5,143.5C 139.972,143.517 139.472,144.184 140,145.5C 142.833,148.333 145.667,151.167 148.5,154C 150.436,154.813 152.436,155.313 154.5,155.5C 155.5,155.5 156.5,155.5 157.5,155.5C 157.389,156.117 157.056,156.617 156.5,157C 158.116,157.615 159.449,158.615 160.5,160C 156.798,161.03 153.132,162.197 149.5,163.5C 147.516,162.289 145.516,160.956 143.5,159.5C 140.914,158.52 138.247,158.187 135.5,158.5C 125.575,156.89 115.575,156.223 105.5,156.5C 105.082,155.778 104.416,155.278 103.5,155C 110.167,154.333 110.167,153.667 103.5,153C 104.833,152.667 106.167,152.333 107.5,152C 104.643,148.369 102.143,144.535 100,140.5C 99.6667,139.167 99.3333,137.833 99,136.5C 94.2434,132.416 90.2434,127.749 87,122.5C 81.0846,120.059 75.2512,117.393 69.5,114.5C 67.5466,113.844 65.5466,113.511 63.5,113.5C 62.4449,111.043 60.6115,109.377 58,108.5C 53.8559,100.017 51.6892,91.017 51.5,81.5C 51.6111,77.5194 52.2778,73.6861 53.5,70C 53.4301,69.2352 53.0967,68.7352 52.5,68.5C 53.3216,65.1924 55.1549,64.5257 58,66.5C 64.5062,63.6622 71.3395,62.8289 78.5,64C 86.0825,65.9197 93.4159,68.5864 100.5,72C 103.51,74.5116 104.01,77.3449 102,80.5C 101.293,78.9194 100.46,77.4194 99.5,76C 95.6918,74.0081 91.6918,72.5081 87.5,71.5 Z"/></g>
<g><path style="opacity:1" fill="#47776e" d="M 46.5,95.5 C 47.3446,96.6715 48.0113,98.0048 48.5,99.5C 48.3367,101.857 48.5034,104.19 49,106.5C 52.6264,111.745 55.1264,117.412 56.5,123.5C 56.1667,123.5 55.8333,123.5 55.5,123.5C 53.8845,121.262 52.5512,118.929 51.5,116.5C 49.0265,112.541 47.3598,108.207 46.5,103.5C 46.5,100.833 46.5,98.1667 46.5,95.5 Z"/></g>
<g><path style="opacity:1" fill="#3b9368" d="M 51.5,99.5 C 54.2706,106.044 58.2706,111.71 63.5,116.5C 66.3908,120.824 65.7242,124.491 61.5,127.5C 62.9123,121.043 60.9123,116.043 55.5,112.5C 53.6978,108.286 52.3644,103.952 51.5,99.5 Z"/></g>
<g><path style="opacity:1" fill="#7475ab" d="M 51.5,116.5 C 52.5512,118.929 53.8845,121.262 55.5,123.5C 55.8168,127.702 55.4834,131.702 54.5,135.5C 54.6582,128.791 53.6582,122.458 51.5,116.5 Z"/></g>
<g><path style="opacity:1" fill="#766bb6" d="M 255.5,114.5 C 255.256,119.389 254.256,124.055 252.5,128.5C 252.997,130.818 253.33,133.152 253.5,135.5C 251.034,131.982 250.034,127.982 250.5,123.5C 251.345,122.329 252.011,120.995 252.5,119.5C 253.687,117.928 254.687,116.261 255.5,114.5 Z"/></g>
<g><path style="opacity:1" fill="#2c7752" d="M 48.5,99.5 C 49.5,99.5 50.5,99.5 51.5,99.5C 52.3644,103.952 53.6978,108.286 55.5,112.5C 60.9123,116.043 62.9123,121.043 61.5,127.5C 61.1667,128.5 60.5,129.167 59.5,129.5C 58.1228,127.711 57.1228,125.711 56.5,123.5C 55.1264,117.412 52.6264,111.745 49,106.5C 48.5034,104.19 48.3367,101.857 48.5,99.5 Z"/></g>
<g><path style="opacity:1" fill="#79cdad" d="M 63.5,113.5 C 65.5466,113.511 67.5466,113.844 69.5,114.5C 75.2512,117.393 81.0846,120.059 87,122.5C 90.2434,127.749 94.2434,132.416 99,136.5C 99.3333,137.833 99.6667,139.167 100,140.5C 102.143,144.535 104.643,148.369 107.5,152C 106.167,152.333 104.833,152.667 103.5,153C 110.167,153.667 110.167,154.333 103.5,155C 104.416,155.278 105.082,155.778 105.5,156.5C 102.99,156.054 100.99,156.72 99.5,158.5C 95.3172,159.257 91.3172,160.59 87.5,162.5C 87.5,162.167 87.5,161.833 87.5,161.5C 90.8057,160.18 93.8057,158.347 96.5,156C 93.3356,155.875 92.3356,154.542 93.5,152C 92.8949,148.391 91.0616,145.557 88,143.5C 87.51,142.207 87.3433,140.873 87.5,139.5C 86.448,139.649 85.448,139.483 84.5,139C 79.5997,134.483 75.0997,129.649 71,124.5C 70.7132,122.109 70.2132,119.776 69.5,117.5C 67.4346,116.143 65.4346,114.81 63.5,113.5 Z"/></g>
<g><path style="opacity:1" fill="#785bba" d="M 46.5,103.5 C 47.3598,108.207 49.0265,112.541 51.5,116.5C 53.6582,122.458 54.6582,128.791 54.5,135.5C 52.3777,140.49 51.3777,145.823 51.5,151.5C 50.3509,151.791 49.6842,152.624 49.5,154C 48.7844,156.792 48.4511,159.626 48.5,162.5C 47.2259,173.026 47.2259,183.693 48.5,194.5C 47.7784,194.082 47.2784,193.416 47,192.5C 46.248,180.151 46.4147,167.817 47.5,155.5C 47.0651,153.26 46.3985,151.094 45.5,149C 46.3449,144.539 46.6782,140.039 46.5,135.5C 47.5,135.5 48.5,135.5 49.5,135.5C 49.5702,132.433 50.9035,130.1 53.5,128.5C 50.9671,125.363 49.8005,121.697 50,117.5C 47.0557,113.285 45.889,108.618 46.5,103.5 Z"/></g>
<g><path style="opacity:1" fill="#cce1ee" d="M 250.5,123.5 C 250.034,127.982 251.034,131.982 253.5,135.5C 255.531,144.941 257.531,154.274 259.5,163.5C 259.824,170.354 259.491,177.021 258.5,183.5C 258.666,177.491 258.499,171.491 258,165.5C 257.802,163.618 257.302,161.952 256.5,160.5C 255.127,155.688 254.293,150.688 254,145.5C 252.031,142.152 251.031,138.486 251,134.5C 247.843,130.926 247.677,127.26 250.5,123.5 Z"/></g>
<g><path style="opacity:1" fill="#9db3c5" d="M 54.5,135.5 C 54.6223,141.177 53.6223,146.51 51.5,151.5C 51.3777,145.823 52.3777,140.49 54.5,135.5 Z"/></g>
<g><path style="opacity:1" fill="#72ac98" d="M 55.5,123.5 C 55.8333,123.5 56.1667,123.5 56.5,123.5C 57.1228,125.711 58.1228,127.711 59.5,129.5C 59.5,131.5 59.5,133.5 59.5,135.5C 58.5,135.5 57.5,135.5 56.5,135.5C 56.665,138.85 56.4983,142.183 56,145.5C 54.2619,150.024 53.0952,154.69 52.5,159.5C 51.7784,159.918 51.2784,160.584 51,161.5C 50.5003,168.826 50.3337,176.159 50.5,183.5C 49.0512,172.905 49.3845,162.238 51.5,151.5C 53.6223,146.51 54.6223,141.177 54.5,135.5C 55.4834,131.702 55.8168,127.702 55.5,123.5 Z"/></g>
<g><path style="opacity:1" fill="#f0f4ef" d="M 203.5,153.5 C 200.303,152.888 198.969,150.888 199.5,147.5C 199.192,145.076 199.526,142.743 200.5,140.5C 203.283,139.537 205.95,138.37 208.5,137C 214.7,134.927 218.033,137.093 218.5,143.5C 216.551,145.792 215.551,148.459 215.5,151.5C 212.87,152.428 210.204,153.428 207.5,154.5C 206.151,154.154 204.817,153.821 203.5,153.5 Z"/></g>
<g><path style="opacity:1" fill="#7b67bb" d="M 253.5,135.5 C 254.81,137.435 256.143,139.435 257.5,141.5C 258.545,148.802 259.212,156.135 259.5,163.5C 257.531,154.274 255.531,144.941 253.5,135.5 Z"/></g>
<g><path style="opacity:1" fill="#f1f2ef" d="M 160.5,153.5 C 160.372,151.91 159.705,150.577 158.5,149.5C 153.325,146.978 148.325,144.311 143.5,141.5C 142.833,141.5 142.167,141.5 141.5,141.5C 141.297,139.61 141.963,138.11 143.5,137C 150.009,136.128 156.009,137.461 161.5,141C 166.83,145.781 166.497,149.948 160.5,153.5 Z"/></g>
<g><path style="opacity:1" fill="#67c19e" d="M 52.5,68.5 C 53.0967,68.7352 53.4301,69.2352 53.5,70C 52.2778,73.6861 51.6111,77.5194 51.5,81.5C 51.6892,91.017 53.8559,100.017 58,108.5C 60.6115,109.377 62.4449,111.043 63.5,113.5C 65.4346,114.81 67.4346,116.143 69.5,117.5C 70.2132,119.776 70.7132,122.109 71,124.5C 75.0997,129.649 79.5997,134.483 84.5,139C 85.448,139.483 86.448,139.649 87.5,139.5C 87.3433,140.873 87.51,142.207 88,143.5C 91.0616,145.557 92.8949,148.391 93.5,152C 92.3356,154.542 93.3356,155.875 96.5,156C 93.8057,158.347 90.8057,160.18 87.5,161.5C 87.7135,159.856 87.3802,158.356 86.5,157C 69.5864,151.014 63.2531,139.181 67.5,121.5C 67.6925,118.467 66.3592,116.801 63.5,116.5C 58.2706,111.71 54.2706,106.044 51.5,99.5C 49.5512,90.6277 48.5512,81.6277 48.5,72.5C 49.5,70.8333 50.8333,69.5 52.5,68.5 Z"/></g>
<g><path style="opacity:1" fill="#629d82" d="M 141.5,143.5 C 142.568,146.075 144.235,148.242 146.5,150C 149.621,151.306 152.287,153.14 154.5,155.5C 152.436,155.313 150.436,154.813 148.5,154C 145.667,151.167 142.833,148.333 140,145.5C 139.472,144.184 139.972,143.517 141.5,143.5 Z"/></g>
<g><path style="opacity:1" fill="#52ad87" d="M 63.5,116.5 C 66.3592,116.801 67.6925,118.467 67.5,121.5C 63.2531,139.181 69.5864,151.014 86.5,157C 87.3802,158.356 87.7135,159.856 87.5,161.5C 87.5,161.833 87.5,162.167 87.5,162.5C 87.5,162.833 87.5,163.167 87.5,163.5C 85.246,164.124 83.5794,165.457 82.5,167.5C 81.5041,167.414 80.6708,167.748 80,168.5C 78.2502,170.734 76.7502,173.068 75.5,175.5C 74.8333,175.833 74.1667,176.167 73.5,176.5C 73.33,175.178 73.6634,174.011 74.5,173C 73.2986,172.097 72.4652,170.931 72,169.5C 71.2753,170.059 70.4419,170.392 69.5,170.5C 66.5778,169.202 63.5778,168.202 60.5,167.5C 60.2542,164.53 58.5876,163.197 55.5,163.5C 55.5432,159.107 55.0432,158.774 54,162.5C 53.7679,161.263 53.2679,160.263 52.5,159.5C 53.0952,154.69 54.2619,150.024 56,145.5C 56.4983,142.183 56.665,138.85 56.5,135.5C 57.5,135.5 58.5,135.5 59.5,135.5C 59.5,133.5 59.5,131.5 59.5,129.5C 60.5,129.167 61.1667,128.5 61.5,127.5C 65.7242,124.491 66.3908,120.824 63.5,116.5 Z"/></g>
<g><path style="opacity:1" fill="#d2d1d0" d="M 143.5,141.5 C 148.325,144.311 153.325,146.978 158.5,149.5C 159.705,150.577 160.372,151.91 160.5,153.5C 159.5,153.5 158.5,153.5 157.5,153.5C 151.224,151.214 146.558,147.214 143.5,141.5 Z"/></g>
<g><path style="opacity:1" fill="#98b5a9" d="M 140.5,141.5 C 140.833,141.5 141.167,141.5 141.5,141.5C 142.167,141.5 142.833,141.5 143.5,141.5C 146.558,147.214 151.224,151.214 157.5,153.5C 157.833,154.167 158.167,154.833 158.5,155.5C 158.167,155.5 157.833,155.5 157.5,155.5C 156.5,155.5 155.5,155.5 154.5,155.5C 152.287,153.14 149.621,151.306 146.5,150C 144.235,148.242 142.568,146.075 141.5,143.5C 141.167,142.833 140.833,142.167 140.5,141.5 Z"/></g>
<g><path style="opacity:1" fill="#b0e6ce" d="M 167.5,171.5 C 164.763,171.599 162.096,171.265 159.5,170.5C 152.656,166.752 145.322,163.586 137.5,161C 136.244,160.583 135.577,159.75 135.5,158.5C 138.247,158.187 140.914,158.52 143.5,159.5C 145.516,160.956 147.516,162.289 149.5,163.5C 153.132,162.197 156.798,161.03 160.5,160C 159.449,158.615 158.116,157.615 156.5,157C 157.056,156.617 157.389,156.117 157.5,155.5C 157.833,155.5 158.167,155.5 158.5,155.5C 160.288,155.785 161.955,155.452 163.5,154.5C 165.503,151.495 168.17,150.828 171.5,152.5C 175.5,157.833 179.5,163.167 183.5,168.5C 187.217,169.693 187.383,171.026 184,172.5C 178.55,171.57 173.05,171.237 167.5,171.5 Z"/></g>
<g><path style="opacity:1" fill="#f3f5f0" d="M 256.5,160.5 C 257.302,161.952 257.802,163.618 258,165.5C 258.499,171.491 258.666,177.491 258.5,183.5C 257.829,180.242 256.996,176.909 256,173.5C 255.781,174.938 255.281,176.271 254.5,177.5C 253.977,172.68 252.977,168.013 251.5,163.5C 250.119,164 249.453,165 249.5,166.5C 251.654,171.96 251.654,177.46 249.5,183C 243.116,183.206 236.783,183.706 230.5,184.5C 229.085,179.311 225.752,176.311 220.5,175.5C 219.808,176.025 219.308,176.692 219,177.5C 218.395,175.519 217.395,175.185 216,176.5C 214.622,174.553 213.289,172.553 212,170.5C 208.831,170.863 206.164,172.197 204,174.5C 203.107,173.919 202.107,173.585 201,173.5C 190.347,176.981 179.514,177.814 168.5,176C 167.748,175.329 167.414,174.496 167.5,173.5C 174.465,174.341 181.465,174.674 188.5,174.5C 198.567,171.922 207.9,167.755 216.5,162C 226.241,157.156 236.574,155.322 247.5,156.5C 247.5,157.5 247.5,158.5 247.5,159.5C 248.93,159.421 250.264,159.754 251.5,160.5C 253.192,162.359 254.692,164.359 256,166.5C 256.495,164.527 256.662,162.527 256.5,160.5 Z"/></g>
<g><path style="opacity:1" fill="#e3e1e0" d="M 101.5,158.5 C 104.984,157.835 108.651,157.501 112.5,157.5C 118.398,157.546 124.065,158.546 129.5,160.5C 132.756,162.675 136.423,164.175 140.5,165C 138.744,165.202 137.078,165.702 135.5,166.5C 138.107,167.318 140.774,167.818 143.5,168C 146.028,169.316 146.028,170.483 143.5,171.5C 146.086,172.48 148.753,172.813 151.5,172.5C 150.901,175.168 149.234,177.002 146.5,178C 150.541,178.924 154.374,178.424 158,176.5C 159.683,177.176 159.85,178.176 158.5,179.5C 149.969,178.43 141.969,179.93 134.5,184C 133.29,185.039 132.29,186.206 131.5,187.5C 130.59,189.019 129.757,190.685 129,192.5C 126.452,188.737 124.452,184.737 123,180.5C 118.695,177.047 115.862,172.714 114.5,167.5C 113.5,167.5 112.5,167.5 111.5,167.5C 111.5,166.167 111.5,164.833 111.5,163.5C 110.448,163.649 109.448,163.483 108.5,163C 109.336,161.757 109.003,160.59 107.5,159.5C 105.591,158.652 103.591,158.318 101.5,158.5 Z"/></g>
<g><path style="opacity:1" fill="#d1e9dd" d="M 105.5,156.5 C 115.575,156.223 125.575,156.89 135.5,158.5C 135.577,159.75 136.244,160.583 137.5,161C 145.322,163.586 152.656,166.752 159.5,170.5C 150.877,168.014 142.544,164.847 134.5,161C 132.866,160.506 131.199,160.34 129.5,160.5C 124.065,158.546 118.398,157.546 112.5,157.5C 108.651,157.501 104.984,157.835 101.5,158.5C 100.833,158.5 100.167,158.5 99.5,158.5C 100.99,156.72 102.99,156.054 105.5,156.5 Z"/></g>
<g><path style="opacity:1" fill="#d5d3d4" d="M 99.5,158.5 C 100.167,158.5 100.833,158.5 101.5,158.5C 103.591,158.318 105.591,158.652 107.5,159.5C 109.003,160.59 109.336,161.757 108.5,163C 109.448,163.483 110.448,163.649 111.5,163.5C 111.5,164.833 111.5,166.167 111.5,167.5C 112.5,167.5 113.5,167.5 114.5,167.5C 115.862,172.714 118.695,177.047 123,180.5C 124.452,184.737 126.452,188.737 129,192.5C 129.757,190.685 130.59,189.019 131.5,187.5C 131.108,192.141 133.108,194.474 137.5,194.5C 138.023,196.708 139.356,198.208 141.5,199C 144.482,199.498 147.482,199.665 150.5,199.5C 150.351,200.552 150.517,201.552 151,202.5C 154.064,203.899 156.064,206.232 157,209.5C 157.778,218.762 162.278,225.429 170.5,229.5C 170.043,230.298 169.376,230.631 168.5,230.5C 168.167,230.5 167.833,230.5 167.5,230.5C 164.217,227.394 160.717,224.394 157,221.5C 154.351,215.399 151.184,209.732 147.5,204.5C 144.584,206.135 141.417,207.469 138,208.5C 136.594,207.332 135.428,207.665 134.5,209.5C 132.363,208.132 130.03,207.132 127.5,206.5C 125.065,204.048 122.398,202.048 119.5,200.5C 119.66,198.801 119.494,197.134 119,195.5C 114.784,189.178 110.117,183.178 105,177.5C 102.634,173.964 100.467,170.297 98.5,166.5C 97.2713,165.719 95.938,165.219 94.5,165C 95.7836,163.703 95.6169,162.536 94,161.5C 92.103,163.016 89.9363,163.683 87.5,163.5C 87.5,163.167 87.5,162.833 87.5,162.5C 91.3172,160.59 95.3172,159.257 99.5,158.5 Z"/></g>
<g><path style="opacity:1" fill="#419871" d="M 52.5,159.5 C 53.2679,160.263 53.7679,161.263 54,162.5C 55.0432,158.774 55.5432,159.107 55.5,163.5C 58.5876,163.197 60.2542,164.53 60.5,167.5C 63.5778,168.202 66.5778,169.202 69.5,170.5C 70.4419,170.392 71.2753,170.059 72,169.5C 72.4652,170.931 73.2986,172.097 74.5,173C 73.6634,174.011 73.33,175.178 73.5,176.5C 72.7362,179.018 71.7362,181.351 70.5,183.5C 68.8786,185.23 67.5452,187.23 66.5,189.5C 64.88,188.159 63.88,186.326 63.5,184C 57.4354,184.436 54.4354,181.602 54.5,175.5C 53.6185,178.13 52.9519,180.797 52.5,183.5C 51.8333,183.5 51.1667,183.5 50.5,183.5C 50.3337,176.159 50.5003,168.826 51,161.5C 51.2784,160.584 51.7784,159.918 52.5,159.5 Z"/></g>
<g><path style="opacity:1" fill="#25151a" d="M 158.5,179.5 C 161.254,181.053 162.087,183.386 161,186.5C 160.329,187.252 159.496,187.586 158.5,187.5C 150.543,187.263 143.543,189.597 137.5,194.5C 133.108,194.474 131.108,192.141 131.5,187.5C 132.29,186.206 133.29,185.039 134.5,184C 141.969,179.93 149.969,178.43 158.5,179.5 Z"/></g>
<g><path style="opacity:1" fill="#32805b" d="M 66.5,189.5 C 66.7474,195.541 66.4141,201.541 65.5,207.5C 64.6372,209.872 63.4705,209.872 62,207.5C 61.6174,208.056 61.1174,208.389 60.5,208.5C 55.3444,201.158 52.6777,192.825 52.5,183.5C 52.9519,180.797 53.6185,178.13 54.5,175.5C 54.4354,181.602 57.4354,184.436 63.5,184C 63.88,186.326 64.88,188.159 66.5,189.5 Z"/></g>
<g><path style="opacity:1" fill="#786dab" d="M 48.5,162.5 C 48.1561,174.912 48.8228,187.246 50.5,199.5C 48.7868,198.365 48.1201,196.698 48.5,194.5C 47.2259,183.693 47.2259,173.026 48.5,162.5 Z"/></g>
<g><path style="opacity:1" fill="#f0ebec" d="M 129.5,160.5 C 131.199,160.34 132.866,160.506 134.5,161C 142.544,164.847 150.877,168.014 159.5,170.5C 162.096,171.265 164.763,171.599 167.5,171.5C 167.5,172.167 167.5,172.833 167.5,173.5C 167.414,174.496 167.748,175.329 168.5,176C 179.514,177.814 190.347,176.981 201,173.5C 202.107,173.585 203.107,173.919 204,174.5C 206.164,172.197 208.831,170.863 212,170.5C 213.289,172.553 214.622,174.553 216,176.5C 217.395,175.185 218.395,175.519 219,177.5C 219.308,176.692 219.808,176.025 220.5,175.5C 225.752,176.311 229.085,179.311 230.5,184.5C 236.783,183.706 243.116,183.206 249.5,183C 251.654,177.46 251.654,171.96 249.5,166.5C 249.453,165 250.119,164 251.5,163.5C 252.977,168.013 253.977,172.68 254.5,177.5C 255.281,176.271 255.781,174.938 256,173.5C 256.996,176.909 257.829,180.242 258.5,183.5C 257.997,188.859 257.33,194.193 256.5,199.5C 255.062,205.043 253.062,210.376 250.5,215.5C 251.504,210.152 252.837,204.819 254.5,199.5C 253.5,199.5 252.5,199.5 251.5,199.5C 251.813,196.753 251.48,194.086 250.5,191.5C 247.07,192.742 245.737,191.409 246.5,187.5C 241.833,187.5 237.167,187.5 232.5,187.5C 232.649,188.552 232.483,189.552 232,190.5C 229.315,191.684 227.148,193.517 225.5,196C 226.109,198.058 227.109,198.891 228.5,198.5C 222.386,199.047 216.386,199.38 210.5,199.5C 210.453,196.072 209.287,193.072 207,190.5C 206.667,190.833 206.333,191.167 206,191.5C 204.758,189.459 202.925,188.293 200.5,188C 199.167,187.333 199.167,186.667 200.5,186C 189.168,180.039 177.835,180.039 166.5,186C 166.167,187.667 165.833,189.333 165.5,191C 167.333,191.5 168.5,192.667 169,194.5C 169.626,192.009 170.459,192.009 171.5,194.5C 177.204,187.23 184.204,185.73 192.5,190C 193.337,191.011 193.67,192.178 193.5,193.5C 192.833,193.167 192.167,192.833 191.5,192.5C 186.833,188.5 182.167,188.5 177.5,192.5C 176.5,192.833 175.833,193.5 175.5,194.5C 173.774,196.82 173.107,199.487 173.5,202.5C 173.279,205.097 172.779,205.097 172,202.5C 171.667,203.5 171.333,204.5 171,205.5C 169.213,204.657 167.38,204.49 165.5,205C 164.134,203.4 163.134,201.567 162.5,199.5C 161.833,199.833 161.167,200.167 160.5,200.5C 159.472,198.639 157.972,197.305 156,196.5C 156.379,194.925 156.212,193.425 155.5,192C 156.448,191.517 157.448,191.351 158.5,191.5C 158.5,190.167 158.5,188.833 158.5,187.5C 159.496,187.586 160.329,187.252 161,186.5C 162.087,183.386 161.254,181.053 158.5,179.5C 159.85,178.176 159.683,177.176 158,176.5C 154.374,178.424 150.541,178.924 146.5,178C 149.234,177.002 150.901,175.168 151.5,172.5C 148.753,172.813 146.086,172.48 143.5,171.5C 146.028,170.483 146.028,169.316 143.5,168C 140.774,167.818 138.107,167.318 135.5,166.5C 137.078,165.702 138.744,165.202 140.5,165C 136.423,164.175 132.756,162.675 129.5,160.5 Z"/></g>
<g><path style="opacity:1" fill="#574148" d="M 204.5,179.5 C 210.732,178.939 216.732,179.772 222.5,182C 226.644,184.72 227.477,188.22 225,192.5C 221.638,193.865 218.805,193.032 216.5,190C 212.339,188.263 208.005,187.263 203.5,187C 200.709,184.016 201.042,181.516 204.5,179.5 Z"/></g>
<g><path style="opacity:1" fill="#866c7c" d="M 191.5,192.5 C 190.624,192.369 189.957,192.702 189.5,193.5C 194.012,198.167 193.012,200 186.5,199C 184.433,195.419 181.433,193.252 177.5,192.5C 182.167,188.5 186.833,188.5 191.5,192.5 Z"/></g>
<g><path style="opacity:1" fill="#e3e0e0" d="M 158.5,187.5 C 158.5,188.833 158.5,190.167 158.5,191.5C 157.448,191.351 156.448,191.517 155.5,192C 156.212,193.425 156.379,194.925 156,196.5C 157.972,197.305 159.472,198.639 160.5,200.5C 161.167,200.167 161.833,199.833 162.5,199.5C 163.134,201.567 164.134,203.4 165.5,205C 167.38,204.49 169.213,204.657 171,205.5C 171.333,204.5 171.667,203.5 172,202.5C 172.779,205.097 173.279,205.097 173.5,202.5C 175.266,204.771 177.266,206.937 179.5,209C 181.345,210.128 183.345,210.628 185.5,210.5C 184.164,212.307 182.497,213.807 180.5,215C 181.406,216.699 181.739,218.533 181.5,220.5C 186.001,220.336 190.001,221.669 193.5,224.5C 194.748,223.96 195.915,223.293 197,222.5C 197.903,223.701 199.069,224.535 200.5,225C 204.991,225.145 209.324,225.979 213.5,227.5C 219.501,226.497 225.501,226.664 231.5,228C 234.756,229.777 238.089,231.277 241.5,232.5C 236.888,239.778 231.221,246.112 224.5,251.5C 224.53,250.503 224.03,249.836 223,249.5C 220.768,250.941 218.768,252.608 217,254.5C 214.876,253.773 212.709,253.106 210.5,252.5C 206.9,254.353 204.234,253.52 202.5,250C 201.167,249.667 199.833,249.333 198.5,249C 197.274,246.473 195.608,244.306 193.5,242.5C 190.929,243.728 189.595,245.728 189.5,248.5C 188.167,248.5 186.833,248.5 185.5,248.5C 185.5,247.5 185.5,246.5 185.5,245.5C 186.423,242.74 188.256,240.74 191,239.5C 191.49,238.207 191.657,236.873 191.5,235.5C 193.672,234.339 195.006,232.505 195.5,230C 192.286,227.568 189.286,224.901 186.5,222C 184.843,221.275 183.843,221.775 183.5,223.5C 181.692,223.491 180.025,223.991 178.5,225C 175.6,227.943 172.266,230.11 168.5,231.5C 168.5,231.167 168.5,230.833 168.5,230.5C 169.376,230.631 170.043,230.298 170.5,229.5C 162.278,225.429 157.778,218.762 157,209.5C 156.064,206.232 154.064,203.899 151,202.5C 150.517,201.552 150.351,200.552 150.5,199.5C 147.482,199.665 144.482,199.498 141.5,199C 139.356,198.208 138.023,196.708 137.5,194.5C 143.543,189.597 150.543,187.263 158.5,187.5 Z"/></g>
<g><path style="opacity:1" fill="#f3f1ef" d="M 250.5,215.5 C 249.833,215.5 249.167,215.5 248.5,215.5C 247.566,214.432 247.232,213.099 247.5,211.5C 239.5,211.5 231.5,211.5 223.5,211.5C 223.5,210.167 223.5,208.833 223.5,207.5C 220.833,207.5 218.167,207.5 215.5,207.5C 214.538,218.055 213.038,218.055 211,207.5C 210.449,215.297 209.449,215.297 208,207.5C 207.259,208.641 206.425,208.641 205.5,207.5C 204.141,205.308 202.308,203.641 200,202.5C 199.943,200.09 198.776,198.756 196.5,198.5C 195.752,196.668 194.752,195.001 193.5,193.5C 193.67,192.178 193.337,191.011 192.5,190C 184.204,185.73 177.204,187.23 171.5,194.5C 170.459,192.009 169.626,192.009 169,194.5C 168.5,192.667 167.333,191.5 165.5,191C 165.833,189.333 166.167,187.667 166.5,186C 177.835,180.039 189.168,180.039 200.5,186C 199.167,186.667 199.167,187.333 200.5,188C 202.925,188.293 204.758,189.459 206,191.5C 206.333,191.167 206.667,190.833 207,190.5C 209.287,193.072 210.453,196.072 210.5,199.5C 216.386,199.38 222.386,199.047 228.5,198.5C 227.109,198.891 226.109,198.058 225.5,196C 227.148,193.517 229.315,191.684 232,190.5C 232.483,189.552 232.649,188.552 232.5,187.5C 237.167,187.5 241.833,187.5 246.5,187.5C 245.737,191.409 247.07,192.742 250.5,191.5C 251.48,194.086 251.813,196.753 251.5,199.5C 252.5,199.5 253.5,199.5 254.5,199.5C 252.837,204.819 251.504,210.152 250.5,215.5 Z"/></g>
<g><path style="opacity:1" fill="#4d846c" d="M 50.5,183.5 C 51.1667,183.5 51.8333,183.5 52.5,183.5C 52.6777,192.825 55.3444,201.158 60.5,208.5C 62.478,210.951 62.8114,213.618 61.5,216.5C 63.785,221.045 65.4516,225.712 66.5,230.5C 65.8333,229.5 65.1667,228.5 64.5,227.5C 62.7376,226.738 61.7376,225.404 61.5,223.5C 61.539,220.911 60.539,218.911 58.5,217.5C 54.9793,206.381 52.3126,195.047 50.5,183.5 Z"/></g>
<g><path style="opacity:1" fill="#4b333e" d="M 177.5,192.5 C 181.433,193.252 184.433,195.419 186.5,199C 193.012,200 194.012,198.167 189.5,193.5C 189.957,192.702 190.624,192.369 191.5,192.5C 192.167,192.833 192.833,193.167 193.5,193.5C 194.752,195.001 195.752,196.668 196.5,198.5C 196.598,200.553 195.931,202.22 194.5,203.5C 194.719,202.325 194.386,201.325 193.5,200.5C 191.547,201.024 189.88,202.024 188.5,203.5C 184.272,200.318 179.938,197.318 175.5,194.5C 175.833,193.5 176.5,192.833 177.5,192.5 Z"/></g>
<g><path style="opacity:1" fill="#25171e" d="M 175.5,194.5 C 179.938,197.318 184.272,200.318 188.5,203.5C 189.88,202.024 191.547,201.024 193.5,200.5C 194.386,201.325 194.719,202.325 194.5,203.5C 192.803,207.416 189.803,209.75 185.5,210.5C 183.345,210.628 181.345,210.128 179.5,209C 177.266,206.937 175.266,204.771 173.5,202.5C 173.107,199.487 173.774,196.82 175.5,194.5 Z"/></g>
<g><path style="opacity:1" fill="#8da2af" d="M 51.5,151.5 C 49.3845,162.238 49.0512,172.905 50.5,183.5C 52.3126,195.047 54.9793,206.381 58.5,217.5C 56.5,213.167 54.5,208.833 52.5,204.5C 51.9759,202.694 51.3092,201.028 50.5,199.5C 48.8228,187.246 48.1561,174.912 48.5,162.5C 48.4511,159.626 48.7844,156.792 49.5,154C 49.6842,152.624 50.3509,151.791 51.5,151.5 Z"/></g>
<g><path style="opacity:1" fill="#8b8c93" d="M 69.5,191.5 C 69.1936,194.385 69.5269,197.052 70.5,199.5C 71.1189,207.165 75.1189,212.665 82.5,216C 83.4601,217.419 84.2935,218.919 85,220.5C 85.6667,219.167 86.3333,219.167 87,220.5C 87.3599,222.608 88.0266,224.608 89,226.5C 90.9986,228.493 92.4986,230.827 93.5,233.5C 94.3279,234.415 95.3279,235.081 96.5,235.5C 96.9981,238.593 97.9981,241.426 99.5,244C 99.1667,244.333 98.8333,244.667 98.5,245C 100.167,246.167 101.833,247.333 103.5,248.5C 102.295,249.995 102.295,251.328 103.5,252.5C 103.5,252.833 103.5,253.167 103.5,253.5C 101.142,252.126 98.8083,250.793 96.5,249.5C 91.8698,244.369 87.0365,239.369 82,234.5C 75.7804,226.395 71.4471,217.395 69,207.5C 68.1826,201.984 68.3493,196.65 69.5,191.5 Z"/></g>
<g><path style="opacity:1" fill="#c9c6ca" d="M 167.5,230.5 C 164.763,229.969 162.096,229.136 159.5,228C 153.928,222.713 148.928,216.88 144.5,210.5C 143.522,210.977 142.689,211.643 142,212.5C 140.983,217.598 138.316,221.264 134,223.5C 131.743,222.252 129.743,220.585 128,218.5C 127.667,218.833 127.333,219.167 127,219.5C 125.117,218.347 124.284,216.681 124.5,214.5C 121.685,213.874 119.185,212.54 117,210.5C 112.833,204.167 108.667,197.833 104.5,191.5C 103.702,189.922 103.202,188.256 103,186.5C 102.667,186.833 102.333,187.167 102,187.5C 100.237,184.98 98.2368,182.647 96,180.5C 94.9591,175.415 92.6258,171.082 89,167.5C 88.0497,168.022 87.2164,168.689 86.5,169.5C 85.4763,168.147 84.143,167.48 82.5,167.5C 83.5794,165.457 85.246,164.124 87.5,163.5C 89.9363,163.683 92.103,163.016 94,161.5C 95.6169,162.536 95.7836,163.703 94.5,165C 95.938,165.219 97.2713,165.719 98.5,166.5C 100.467,170.297 102.634,173.964 105,177.5C 110.117,183.178 114.784,189.178 119,195.5C 119.494,197.134 119.66,198.801 119.5,200.5C 122.398,202.048 125.065,204.048 127.5,206.5C 130.03,207.132 132.363,208.132 134.5,209.5C 135.428,207.665 136.594,207.332 138,208.5C 141.417,207.469 144.584,206.135 147.5,204.5C 151.184,209.732 154.351,215.399 157,221.5C 160.717,224.394 164.217,227.394 167.5,230.5 Z"/></g>
<g><path style="opacity:1" fill="#306f51" d="M 70.5,183.5 C 69.9084,186.127 69.5751,188.794 69.5,191.5C 68.3493,196.65 68.1826,201.984 69,207.5C 71.4471,217.395 75.7804,226.395 82,234.5C 87.0365,239.369 91.8698,244.369 96.5,249.5C 93.8682,247.887 91.2016,246.22 88.5,244.5C 87.9955,241.658 86.3289,240.325 83.5,240.5C 82.5158,245.561 81.1824,245.394 79.5,240C 78.552,239.517 77.552,239.351 76.5,239.5C 77.5,242.167 78.5,244.833 79.5,247.5C 78.5084,247.672 77.8417,247.338 77.5,246.5C 73.47,241.394 69.8034,236.06 66.5,230.5C 65.4516,225.712 63.785,221.045 61.5,216.5C 62.8114,213.618 62.478,210.951 60.5,208.5C 61.1174,208.389 61.6174,208.056 62,207.5C 63.4705,209.872 64.6372,209.872 65.5,207.5C 66.4141,201.541 66.7474,195.541 66.5,189.5C 67.5452,187.23 68.8786,185.23 70.5,183.5 Z"/></g>
<g><path style="opacity:1" fill="#7e60b9" d="M 256.5,199.5 C 256.322,204.039 256.655,208.539 257.5,213C 256.669,216.108 255.836,215.941 255,212.5C 253.411,216.031 252.245,219.698 251.5,223.5C 249.21,224.467 247.21,225.8 245.5,227.5C 247.167,223.5 248.833,219.5 250.5,215.5C 253.062,210.376 255.062,205.043 256.5,199.5 Z"/></g>
<g><path style="opacity:1" fill="#9a979f" d="M 107.5,252.5 C 106.167,252.5 104.833,252.5 103.5,252.5C 102.295,251.328 102.295,249.995 103.5,248.5C 101.833,247.333 100.167,246.167 98.5,245C 98.8333,244.667 99.1667,244.333 99.5,244C 97.9981,241.426 96.9981,238.593 96.5,235.5C 95.3279,235.081 94.3279,234.415 93.5,233.5C 92.4986,230.827 90.9986,228.493 89,226.5C 88.0266,224.608 87.3599,222.608 87,220.5C 86.3333,219.167 85.6667,219.167 85,220.5C 84.2935,218.919 83.4601,217.419 82.5,216C 75.1189,212.665 71.1189,207.165 70.5,199.5C 70.3367,197.143 70.5034,194.81 71,192.5C 86.3828,203.955 97.3828,218.622 104,236.5C 104.925,237.047 105.758,237.713 106.5,238.5C 107.536,242.074 109.202,245.241 111.5,248C 109.956,248.29 108.623,248.956 107.5,250C 108.598,250.77 108.598,251.603 107.5,252.5 Z"/></g>
<g><path style="opacity:1" fill="#a4a3a9" d="M 75.5,175.5 C 75.238,176.978 75.5713,178.311 76.5,179.5C 77.086,179.291 77.586,178.957 78,178.5C 78.49,179.793 78.6567,181.127 78.5,182.5C 81.8011,186.46 85.6344,190.127 90,193.5C 91.9698,197.776 94.6364,201.443 98,204.5C 99.27,209.136 100.603,213.802 102,218.5C 105.082,221.659 107.416,225.325 109,229.5C 113.216,231.549 115.716,234.883 116.5,239.5C 117.5,239.5 118.5,239.5 119.5,239.5C 119.79,243.474 121.457,246.808 124.5,249.5C 124.291,250.086 123.957,250.586 123.5,251C 125.556,253.444 128.056,255.277 131,256.5C 131.483,257.448 131.649,258.448 131.5,259.5C 130.883,259.611 130.383,259.944 130,260.5C 125.851,258.851 121.684,257.184 117.5,255.5C 113.214,257.267 109.881,256.267 107.5,252.5C 108.598,251.603 108.598,250.77 107.5,250C 108.623,248.956 109.956,248.29 111.5,248C 109.202,245.241 107.536,242.074 106.5,238.5C 105.758,237.713 104.925,237.047 104,236.5C 97.3828,218.622 86.3828,203.955 71,192.5C 70.5034,194.81 70.3367,197.143 70.5,199.5C 69.5269,197.052 69.1936,194.385 69.5,191.5C 69.5751,188.794 69.9084,186.127 70.5,183.5C 71.7362,181.351 72.7362,179.018 73.5,176.5C 74.1667,176.167 74.8333,175.833 75.5,175.5 Z"/></g>
<g><path style="opacity:1" fill="#edeae8" d="M 196.5,198.5 C 198.776,198.756 199.943,200.09 200,202.5C 202.308,203.641 204.141,205.308 205.5,207.5C 206.425,208.641 207.259,208.641 208,207.5C 209.449,215.297 210.449,215.297 211,207.5C 213.038,218.055 214.538,218.055 215.5,207.5C 218.167,207.5 220.833,207.5 223.5,207.5C 223.5,208.833 223.5,210.167 223.5,211.5C 231.5,211.5 239.5,211.5 247.5,211.5C 247.232,213.099 247.566,214.432 248.5,215.5C 246.832,217.479 246.166,219.812 246.5,222.5C 245.5,222.5 244.5,222.5 243.5,222.5C 242.833,225.5 242.167,228.5 241.5,231.5C 241.5,231.833 241.5,232.167 241.5,232.5C 238.089,231.277 234.756,229.777 231.5,228C 225.501,226.664 219.501,226.497 213.5,227.5C 209.324,225.979 204.991,225.145 200.5,225C 199.069,224.535 197.903,223.701 197,222.5C 195.915,223.293 194.748,223.96 193.5,224.5C 190.001,221.669 186.001,220.336 181.5,220.5C 181.739,218.533 181.406,216.699 180.5,215C 182.497,213.807 184.164,212.307 185.5,210.5C 189.803,209.75 192.803,207.416 194.5,203.5C 195.931,202.22 196.598,200.553 196.5,198.5 Z"/></g>
<g><path style="opacity:1" fill="#7567b0" d="M 52.5,204.5 C 54.5,208.833 56.5,213.167 58.5,217.5C 58.9925,219.819 59.9925,221.819 61.5,223.5C 61.7376,225.404 62.7376,226.738 64.5,227.5C 64.5,228.833 64.5,230.167 64.5,231.5C 61.6969,227.937 58.8636,224.271 56,220.5C 55.1241,215.089 53.9574,209.756 52.5,204.5 Z"/></g>
<g><path style="opacity:1" fill="#8ba2b3" d="M 58.5,217.5 C 60.539,218.911 61.539,220.911 61.5,223.5C 59.9925,221.819 58.9925,219.819 58.5,217.5 Z"/></g>
<g><path style="opacity:1" fill="#bdbabe" d="M 82.5,167.5 C 84.143,167.48 85.4763,168.147 86.5,169.5C 87.2164,168.689 88.0497,168.022 89,167.5C 92.6258,171.082 94.9591,175.415 96,180.5C 98.2368,182.647 100.237,184.98 102,187.5C 102.333,187.167 102.667,186.833 103,186.5C 103.202,188.256 103.702,189.922 104.5,191.5C 108.667,197.833 112.833,204.167 117,210.5C 119.185,212.54 121.685,213.874 124.5,214.5C 124.284,216.681 125.117,218.347 127,219.5C 127.333,219.167 127.667,218.833 128,218.5C 129.743,220.585 131.743,222.252 134,223.5C 138.316,221.264 140.983,217.598 142,212.5C 142.689,211.643 143.522,210.977 144.5,210.5C 148.928,216.88 153.928,222.713 159.5,228C 162.096,229.136 164.763,229.969 167.5,230.5C 167.833,230.5 168.167,230.5 168.5,230.5C 168.5,230.833 168.5,231.167 168.5,231.5C 167.833,231.833 167.167,232.167 166.5,232.5C 161.649,233.216 157.482,231.883 154,228.5C 152.294,224.921 150.461,221.421 148.5,218C 146.527,217.505 144.527,217.338 142.5,217.5C 141.285,223.701 142.952,228.868 147.5,233C 151.723,233.614 156.056,234.114 160.5,234.5C 160.724,236.787 161.391,238.953 162.5,241C 161.767,242.766 161.433,244.599 161.5,246.5C 167.667,247.476 173.667,247.143 179.5,245.5C 181.153,245.34 182.486,244.674 183.5,243.5C 186.55,241.451 188.883,238.784 190.5,235.5C 190.833,235.5 191.167,235.5 191.5,235.5C 191.657,236.873 191.49,238.207 191,239.5C 188.256,240.74 186.423,242.74 185.5,245.5C 180.863,247.935 175.863,249.435 170.5,250C 169.083,252.826 167.583,252.993 166,250.5C 165.075,251.047 164.242,251.713 163.5,252.5C 164.641,253.425 164.641,254.259 163.5,255C 161.101,255.711 158.768,255.544 156.5,254.5C 155.386,255.723 155.219,257.056 156,258.5C 158.205,259.412 160.038,260.745 161.5,262.5C 156.645,263.691 151.645,263.691 146.5,262.5C 145.895,260.974 144.729,259.974 143,259.5C 142.383,258.551 142.549,257.718 143.5,257C 141.208,255.71 139.208,254.043 137.5,252C 135.527,251.505 133.527,251.338 131.5,251.5C 133.695,247.22 132.529,244.22 128,242.5C 126.203,236.533 122.37,232.867 116.5,231.5C 115.833,228.833 115.167,226.167 114.5,223.5C 113.5,223.5 112.5,223.5 111.5,223.5C 111.5,222.167 111.5,220.833 111.5,219.5C 110.5,219.5 109.5,219.5 108.5,219.5C 108.246,216.986 107.413,214.652 106,212.5C 100.369,205.932 95.2023,198.932 90.5,191.5C 86.9974,187.641 82.9974,184.641 78.5,182.5C 78.6567,181.127 78.49,179.793 78,178.5C 77.586,178.957 77.086,179.291 76.5,179.5C 75.5713,178.311 75.238,176.978 75.5,175.5C 76.7502,173.068 78.2502,170.734 80,168.5C 80.6708,167.748 81.5041,167.414 82.5,167.5 Z"/></g>
<g><path style="opacity:1" fill="#cdbabd" d="M 191.5,235.5 C 191.539,234.417 191.873,233.417 192.5,232.5C 188.383,230.584 185.383,227.584 183.5,223.5C 183.843,221.775 184.843,221.275 186.5,222C 189.286,224.901 192.286,227.568 195.5,230C 195.006,232.505 193.672,234.339 191.5,235.5 Z"/></g>
<g><path style="opacity:1" fill="#acacb0" d="M 78.5,182.5 C 82.9974,184.641 86.9974,187.641 90.5,191.5C 95.2023,198.932 100.369,205.932 106,212.5C 107.413,214.652 108.246,216.986 108.5,219.5C 109.5,219.5 110.5,219.5 111.5,219.5C 111.5,220.833 111.5,222.167 111.5,223.5C 112.5,223.5 113.5,223.5 114.5,223.5C 115.167,226.167 115.833,228.833 116.5,231.5C 122.37,232.867 126.203,236.533 128,242.5C 132.529,244.22 133.695,247.22 131.5,251.5C 133.527,251.338 135.527,251.505 137.5,252C 139.208,254.043 141.208,255.71 143.5,257C 142.549,257.718 142.383,258.551 143,259.5C 144.729,259.974 145.895,260.974 146.5,262.5C 146.5,262.833 146.5,263.167 146.5,263.5C 141.101,263.235 136.101,261.902 131.5,259.5C 131.649,258.448 131.483,257.448 131,256.5C 128.056,255.277 125.556,253.444 123.5,251C 123.957,250.586 124.291,250.086 124.5,249.5C 121.457,246.808 119.79,243.474 119.5,239.5C 118.5,239.5 117.5,239.5 116.5,239.5C 115.716,234.883 113.216,231.549 109,229.5C 107.416,225.325 105.082,221.659 102,218.5C 100.603,213.802 99.27,209.136 98,204.5C 94.6364,201.443 91.9698,197.776 90,193.5C 85.6344,190.127 81.8011,186.46 78.5,182.5 Z"/></g>
<g><path style="opacity:1" fill="#eadff7" d="M 248.5,215.5 C 249.167,215.5 249.833,215.5 250.5,215.5C 248.833,219.5 247.167,223.5 245.5,227.5C 244.167,228.833 242.833,230.167 241.5,231.5C 242.167,228.5 242.833,225.5 243.5,222.5C 244.5,222.5 245.5,222.5 246.5,222.5C 246.166,219.812 246.832,217.479 248.5,215.5 Z"/></g>
<g><path style="opacity:1" fill="#c55e5a" d="M 183.5,223.5 C 185.383,227.584 188.383,230.584 192.5,232.5C 191.873,233.417 191.539,234.417 191.5,235.5C 191.167,235.5 190.833,235.5 190.5,235.5C 190.649,234.448 190.483,233.448 190,232.5C 189.667,232.833 189.333,233.167 189,233.5C 186.443,230.808 183.609,228.475 180.5,226.5C 177.041,229.068 173.374,231.402 169.5,233.5C 168.369,235.074 168.202,236.741 169,238.5C 172.827,242.714 177.66,244.38 183.5,243.5C 182.486,244.674 181.153,245.34 179.5,245.5C 171.589,244.922 167.255,240.589 166.5,232.5C 167.167,232.167 167.833,231.833 168.5,231.5C 172.266,230.11 175.6,227.943 178.5,225C 180.025,223.991 181.692,223.491 183.5,223.5 Z"/></g>
<g><path style="opacity:1" fill="#e95f53" d="M 190.5,235.5 C 188.883,238.784 186.55,241.451 183.5,243.5C 177.66,244.38 172.827,242.714 169,238.5C 168.202,236.741 168.369,235.074 169.5,233.5C 173.374,231.402 177.041,229.068 180.5,226.5C 183.609,228.475 186.443,230.808 189,233.5C 189.333,233.167 189.667,232.833 190,232.5C 190.483,233.448 190.649,234.448 190.5,235.5 Z"/></g>
<g><path style="opacity:1" fill="#616e8d" d="M 64.5,227.5 C 65.1667,228.5 65.8333,229.5 66.5,230.5C 69.8034,236.06 73.47,241.394 77.5,246.5C 75.5,244.833 73.5,243.167 71.5,241.5C 69.5878,238.679 67.9212,235.679 66.5,232.5C 65.8165,232.137 65.1499,231.804 64.5,231.5C 64.5,230.167 64.5,228.833 64.5,227.5 Z"/></g>
<g><path style="opacity:1" fill="#aba2a8" d="M 166.5,232.5 C 167.255,240.589 171.589,244.922 179.5,245.5C 173.667,247.143 167.667,247.476 161.5,246.5C 161.433,244.599 161.767,242.766 162.5,241C 161.391,238.953 160.724,236.787 160.5,234.5C 156.056,234.114 151.723,233.614 147.5,233C 142.952,228.868 141.285,223.701 142.5,217.5C 144.527,217.338 146.527,217.505 148.5,218C 150.461,221.421 152.294,224.921 154,228.5C 157.482,231.883 161.649,233.216 166.5,232.5 Z"/></g>
<g><path style="opacity:1" fill="#6c5baa" d="M 71.5,241.5 C 73.5,243.167 75.5,244.833 77.5,246.5C 77.8417,247.338 78.5084,247.672 79.5,247.5C 83.589,252.594 88.2557,256.927 93.5,260.5C 90.126,259.142 86.7927,257.809 83.5,256.5C 83.5,255.5 83.5,254.5 83.5,253.5C 81.6583,253.277 79.825,252.943 78,252.5C 76.6739,252.755 75.6739,253.422 75,254.5C 74.4712,252.415 74.9712,250.582 76.5,249C 74.6006,246.611 72.9339,244.111 71.5,241.5 Z"/></g>
<g><path style="opacity:1" fill="#2d5953" d="M 79.5,247.5 C 82.5628,249.051 85.2295,251.218 87.5,254C 88.7839,254.684 89.9505,254.517 91,253.5C 91.9832,255.448 93.1498,257.282 94.5,259C 99.1916,261.935 103.858,264.769 108.5,267.5C 105.345,267.023 102.345,266.023 99.5,264.5C 97.2228,263.551 95.2228,262.218 93.5,260.5C 88.2557,256.927 83.589,252.594 79.5,247.5 Z"/></g>
<g><path style="opacity:1" fill="#ced3d0" d="M 224.5,251.5 C 223.662,251.842 223.328,252.508 223.5,253.5C 221.938,253.733 220.605,254.4 219.5,255.5C 216.169,257.163 212.835,258.83 209.5,260.5C 202.551,263.149 195.551,265.482 188.5,267.5C 186.585,267.216 184.919,267.549 183.5,268.5C 180.833,268.5 178.167,268.5 175.5,268.5C 177.954,267.379 180.621,266.546 183.5,266C 177.95,263.753 172.284,263.253 166.5,264.5C 164.7,264.098 163.033,263.431 161.5,262.5C 160.038,260.745 158.205,259.412 156,258.5C 155.219,257.056 155.386,255.723 156.5,254.5C 158.768,255.544 161.101,255.711 163.5,255C 164.641,254.259 164.641,253.425 163.5,252.5C 164.242,251.713 165.075,251.047 166,250.5C 167.583,252.993 169.083,252.826 170.5,250C 175.863,249.435 180.863,247.935 185.5,245.5C 185.5,246.5 185.5,247.5 185.5,248.5C 186.833,248.5 188.167,248.5 189.5,248.5C 189.595,245.728 190.929,243.728 193.5,242.5C 195.608,244.306 197.274,246.473 198.5,249C 199.833,249.333 201.167,249.667 202.5,250C 204.234,253.52 206.9,254.353 210.5,252.5C 212.709,253.106 214.876,253.773 217,254.5C 218.768,252.608 220.768,250.941 223,249.5C 224.03,249.836 224.53,250.503 224.5,251.5 Z"/></g>
<g><path style="opacity:1" fill="#28744c" d="M 96.5,249.5 C 98.8083,250.793 101.142,252.126 103.5,253.5C 106.167,255.167 108.833,256.833 111.5,258.5C 109.553,259.15 107.887,260.317 106.5,262C 109.715,263.102 112.382,264.935 114.5,267.5C 117.09,269.324 120.09,270.657 123.5,271.5C 123.5,271.833 123.5,272.167 123.5,272.5C 121.435,272.483 119.435,272.15 117.5,271.5C 117.158,270.662 116.492,270.328 115.5,270.5C 112.843,270.065 110.509,269.065 108.5,267.5C 103.858,264.769 99.1916,261.935 94.5,259C 93.1498,257.282 91.9832,255.448 91,253.5C 89.9505,254.517 88.7839,254.684 87.5,254C 85.2295,251.218 82.5628,249.051 79.5,247.5C 78.5,244.833 77.5,242.167 76.5,239.5C 77.552,239.351 78.552,239.517 79.5,240C 81.1824,245.394 82.5158,245.561 83.5,240.5C 86.3289,240.325 87.9955,241.658 88.5,244.5C 91.2016,246.22 93.8682,247.887 96.5,249.5 Z"/></g>
<g><path style="opacity:1" fill="#87b1ba" d="M 219.5,255.5 C 216.875,258.815 213.542,261.149 209.5,262.5C 209.5,261.833 209.5,261.167 209.5,260.5C 212.835,258.83 216.169,257.163 219.5,255.5 Z"/></g>
<g><path style="opacity:1" fill="#95a8a2" d="M 103.5,252.5 C 104.833,252.5 106.167,252.5 107.5,252.5C 109.881,256.267 113.214,257.267 117.5,255.5C 121.684,257.184 125.851,258.851 130,260.5C 130.383,259.944 130.883,259.611 131.5,259.5C 136.101,261.902 141.101,263.235 146.5,263.5C 142.366,264.485 138.032,264.818 133.5,264.5C 130.692,263.071 127.692,262.405 124.5,262.5C 120.121,261.322 115.788,259.988 111.5,258.5C 108.833,256.833 106.167,255.167 103.5,253.5C 103.5,253.167 103.5,252.833 103.5,252.5 Z"/></g>
<g><path style="opacity:1" fill="#666fa6" d="M 223.5,253.5 C 221.706,255.797 219.706,257.963 217.5,260C 212.972,263.096 208.305,265.929 203.5,268.5C 201.784,268.629 200.117,268.962 198.5,269.5C 201.997,266.917 205.664,264.584 209.5,262.5C 213.542,261.149 216.875,258.815 219.5,255.5C 220.605,254.4 221.938,253.733 223.5,253.5 Z"/></g>
<g><path style="opacity:1" fill="#b3c2bb" d="M 146.5,262.5 C 151.645,263.691 156.645,263.691 161.5,262.5C 163.033,263.431 164.7,264.098 166.5,264.5C 172.284,263.253 177.95,263.753 183.5,266C 180.621,266.546 177.954,267.379 175.5,268.5C 161.141,269.326 147.141,267.993 133.5,264.5C 138.032,264.818 142.366,264.485 146.5,263.5C 146.5,263.167 146.5,262.833 146.5,262.5 Z"/></g>
<g><path style="opacity:1" fill="#3b8d62" d="M 111.5,258.5 C 115.788,259.988 120.121,261.322 124.5,262.5C 135.46,267.692 147.127,270.025 159.5,269.5C 159.5,269.833 159.5,270.167 159.5,270.5C 144.428,269.691 129.428,268.691 114.5,267.5C 112.382,264.935 109.715,263.102 106.5,262C 107.887,260.317 109.553,259.15 111.5,258.5 Z"/></g>
<g><path style="opacity:1" fill="#74bea7" d="M 209.5,260.5 C 209.5,261.167 209.5,261.833 209.5,262.5C 205.664,264.584 201.997,266.917 198.5,269.5C 195.046,269.267 194.046,270.6 195.5,273.5C 194.833,273.5 194.167,273.5 193.5,273.5C 190.953,272.121 190.953,270.454 193.5,268.5C 191.955,267.548 190.288,267.215 188.5,267.5C 195.551,265.482 202.551,263.149 209.5,260.5 Z"/></g>
<g><path style="opacity:1" fill="#97c1ac" d="M 124.5,262.5 C 127.692,262.405 130.692,263.071 133.5,264.5C 147.141,267.993 161.141,269.326 175.5,268.5C 178.167,268.5 180.833,268.5 183.5,268.5C 175.684,269.492 167.684,269.826 159.5,269.5C 147.127,270.025 135.46,267.692 124.5,262.5 Z"/></g>
<g><path style="opacity:1" fill="#725db4" d="M 203.5,268.5 C 204.568,269.434 205.901,269.768 207.5,269.5C 207.421,270.93 207.754,272.264 208.5,273.5C 207.5,274.167 206.5,274.833 205.5,275.5C 207.772,276.134 209.439,277.468 210.5,279.5C 208.685,278.37 206.685,277.704 204.5,277.5C 202.165,274.835 199.165,273.502 195.5,273.5C 194.046,270.6 195.046,269.267 198.5,269.5C 200.117,268.962 201.784,268.629 203.5,268.5 Z"/></g>
<g><path style="opacity:1" fill="#685ca6" d="M 99.5,264.5 C 102.345,266.023 105.345,267.023 108.5,267.5C 110.509,269.065 112.843,270.065 115.5,270.5C 115.586,271.496 115.252,272.329 114.5,273C 111.128,274.019 108.128,275.519 105.5,277.5C 105.167,277.5 104.833,277.5 104.5,277.5C 102.216,277.975 100.216,278.975 98.5,280.5C 98.1667,280.5 97.8333,280.5 97.5,280.5C 98.2899,279.206 99.2899,278.039 100.5,277C 104.585,276.749 106.918,274.582 107.5,270.5C 104.554,268.889 101.887,266.889 99.5,264.5 Z"/></g>
<g><path style="opacity:1" fill="#59c28a" d="M 188.5,267.5 C 190.288,267.215 191.955,267.548 193.5,268.5C 190.953,270.454 190.953,272.121 193.5,273.5C 191.603,274.805 189.269,275.471 186.5,275.5C 180.179,276.11 173.845,276.444 167.5,276.5C 165.189,274.932 162.522,274.098 159.5,274C 170.167,273.333 170.167,272.667 159.5,272C 163.449,271.193 163.449,270.693 159.5,270.5C 159.5,270.167 159.5,269.833 159.5,269.5C 167.684,269.826 175.684,269.492 183.5,268.5C 184.919,267.549 186.585,267.216 188.5,267.5 Z"/></g>
<g><path style="opacity:1" fill="#374f58" d="M 115.5,270.5 C 116.492,270.328 117.158,270.662 117.5,271.5C 117.047,272.458 116.381,273.292 115.5,274C 112.691,275.093 110.024,276.26 107.5,277.5C 106.833,277.5 106.167,277.5 105.5,277.5C 108.128,275.519 111.128,274.019 114.5,273C 115.252,272.329 115.586,271.496 115.5,270.5 Z"/></g>
<g><path style="opacity:1" fill="#14562e" d="M 117.5,271.5 C 119.435,272.15 121.435,272.483 123.5,272.5C 128.613,273.44 133.613,274.606 138.5,276C 128.159,276.44 117.826,276.94 107.5,277.5C 110.024,276.26 112.691,275.093 115.5,274C 116.381,273.292 117.047,272.458 117.5,271.5 Z"/></g>
<g><path style="opacity:1" fill="#277d4a" d="M 123.5,272.5 C 123.5,272.167 123.5,271.833 123.5,271.5C 131.84,272.667 140.173,274.167 148.5,276C 135.018,278.982 121.351,280.316 107.5,280C 105.833,280.333 104.167,280.667 102.5,281C 103.337,282.011 103.67,283.178 103.5,284.5C 100.99,284.054 98.9899,284.72 97.5,286.5C 96.4168,286.539 95.4168,286.873 94.5,287.5C 93.537,287.03 93.537,286.363 94.5,285.5C 98.1274,283.206 101.461,280.54 104.5,277.5C 104.833,277.5 105.167,277.5 105.5,277.5C 106.167,277.5 106.833,277.5 107.5,277.5C 117.826,276.94 128.159,276.44 138.5,276C 133.613,274.606 128.613,273.44 123.5,272.5 Z"/></g>
<g><path style="opacity:1" fill="#638b8c" d="M 104.5,277.5 C 101.461,280.54 98.1274,283.206 94.5,285.5C 95.8333,283.833 97.1667,282.167 98.5,280.5C 100.216,278.975 102.216,277.975 104.5,277.5 Z"/></g>
<g><path style="opacity:1" fill="#3ca168" d="M 114.5,267.5 C 129.428,268.691 144.428,269.691 159.5,270.5C 163.449,270.693 163.449,271.193 159.5,272C 170.167,272.667 170.167,273.333 159.5,274C 162.522,274.098 165.189,274.932 167.5,276.5C 152.882,279.322 138.216,281.822 123.5,284C 116.132,284.313 108.799,284.98 101.5,286C 100.318,287.768 98.9848,287.935 97.5,286.5C 98.9899,284.72 100.99,284.054 103.5,284.5C 103.67,283.178 103.337,282.011 102.5,281C 104.167,280.667 105.833,280.333 107.5,280C 121.351,280.316 135.018,278.982 148.5,276C 140.173,274.167 131.84,272.667 123.5,271.5C 120.09,270.657 117.09,269.324 114.5,267.5 Z"/></g>
<g><path style="opacity:1" fill="#6c64ab" d="M 210.5,279.5 C 211.5,279.5 212.5,279.5 213.5,279.5C 215.984,281.8 217.984,284.467 219.5,287.5C 216.474,284.805 213.474,282.138 210.5,279.5 Z"/></g>
<g><path style="opacity:0.999" fill="#b8ead1" d="M 206.5,280.5 C 209.661,281.47 212.494,283.137 215,285.5C 215.667,287.167 215.667,288.833 215,290.5C 212.081,289.813 209.248,288.813 206.5,287.5C 206.167,288.167 205.833,288.833 205.5,289.5C 207.199,291.727 208.532,294.227 209.5,297C 215.33,296.313 218.33,299.147 218.5,305.5C 216.273,304.599 215.273,302.933 215.5,300.5C 212.167,300.5 208.833,300.5 205.5,300.5C 204.942,303.344 204.275,306.178 203.5,309C 203.773,310.533 204.106,312.033 204.5,313.5C 200.877,314.656 197.211,315.656 193.5,316.5C 193.502,308.67 189.669,304.003 182,302.5C 179.863,303.077 177.696,303.41 175.5,303.5C 172.79,308.617 170.457,313.95 168.5,319.5C 165.5,319.5 162.5,319.5 159.5,319.5C 159.676,308.151 164.01,298.651 172.5,291C 174.5,289.667 176.5,288.333 178.5,287C 180.899,286.289 183.232,286.456 185.5,287.5C 192.539,284.931 199.539,282.598 206.5,280.5 Z"/></g>
<g><path style="opacity:1" fill="#98dfbc" d="M 196.5,276.5 C 197.978,276.238 199.311,276.571 200.5,277.5C 200.291,278.086 199.957,278.586 199.5,279C 190.33,281.959 180.996,284.293 171.5,286C 168.702,287.63 166.035,289.463 163.5,291.5C 160.666,296.113 157.833,300.779 155,305.5C 154.085,304.672 153.419,303.672 153,302.5C 152.241,305.785 150.908,308.785 149,311.5C 148.728,314.254 148.228,316.921 147.5,319.5C 145.5,319.5 143.5,319.5 141.5,319.5C 140.432,318.566 139.099,318.232 137.5,318.5C 137.467,313.273 138.467,308.273 140.5,303.5C 141.873,303.657 143.207,303.49 144.5,303C 146.353,300.429 148.019,297.762 149.5,295C 155.221,290.279 161.221,285.946 167.5,282C 177.412,280.418 187.079,278.585 196.5,276.5 Z"/></g>
<g><path style="opacity:1" fill="#8899bb" d="M 97.5,280.5 C 97.8333,280.5 98.1667,280.5 98.5,280.5C 97.1667,282.167 95.8333,283.833 94.5,285.5C 90.562,288.098 86.8953,291.098 83.5,294.5C 87.1454,288.855 91.8121,284.188 97.5,280.5 Z"/></g>
<g><path style="opacity:1" fill="#a8e4c6" d="M 195.5,273.5 C 199.165,273.502 202.165,274.835 204.5,277.5C 205.551,278.222 206.218,279.222 206.5,280.5C 199.539,282.598 192.539,284.931 185.5,287.5C 183.232,286.456 180.899,286.289 178.5,287C 176.5,288.333 174.5,289.667 172.5,291C 164.01,298.651 159.676,308.151 159.5,319.5C 155.5,319.5 151.5,319.5 147.5,319.5C 148.228,316.921 148.728,314.254 149,311.5C 150.908,308.785 152.241,305.785 153,302.5C 153.419,303.672 154.085,304.672 155,305.5C 157.833,300.779 160.666,296.113 163.5,291.5C 166.035,289.463 168.702,287.63 171.5,286C 180.996,284.293 190.33,281.959 199.5,279C 199.957,278.586 200.291,278.086 200.5,277.5C 199.311,276.571 197.978,276.238 196.5,276.5C 196.443,275.391 196.11,274.391 195.5,273.5 Z"/></g>
<g><path style="opacity:1" fill="#7dd2a7" d="M 193.5,273.5 C 194.167,273.5 194.833,273.5 195.5,273.5C 196.11,274.391 196.443,275.391 196.5,276.5C 187.079,278.585 177.412,280.418 167.5,282C 161.221,285.946 155.221,290.279 149.5,295C 148.019,297.762 146.353,300.429 144.5,303C 143.207,303.49 141.873,303.657 140.5,303.5C 138.467,308.273 137.467,313.273 137.5,318.5C 132.625,317.915 127.958,316.915 123.5,315.5C 123.752,311.023 123.919,306.357 124,301.5C 124.837,298.635 125.67,295.802 126.5,293C 128.586,292.373 128.919,292.873 127.5,294.5C 128.365,295.583 129.365,295.749 130.5,295C 135.227,291.924 139.894,288.757 144.5,285.5C 152.154,282.162 159.82,279.162 167.5,276.5C 173.845,276.444 180.179,276.11 186.5,275.5C 189.269,275.471 191.603,274.805 193.5,273.5 Z"/></g>
<g><path style="opacity:1" fill="#cbdfef" d="M 220.5,289.5 C 224.167,292.833 227.833,296.167 231.5,299.5C 231.557,300.609 231.89,301.609 232.5,302.5C 231.833,302.833 231.167,303.167 230.5,303.5C 227.587,298.578 224.254,293.912 220.5,289.5 Z"/></g>
<g><path style="opacity:1" fill="#6857a9" d="M 219.5,287.5 C 222.292,289.289 225.292,290.623 228.5,291.5C 229.117,294.355 230.117,297.022 231.5,299.5C 227.833,296.167 224.167,292.833 220.5,289.5C 220.167,288.833 219.833,288.167 219.5,287.5 Z"/></g>
<g><path style="opacity:1" fill="#c5ecdb" d="M 204.5,277.5 C 206.685,277.704 208.685,278.37 210.5,279.5C 213.474,282.138 216.474,284.805 219.5,287.5C 219.833,288.167 220.167,288.833 220.5,289.5C 224.254,293.912 227.587,298.578 230.5,303.5C 227.397,305.384 224.063,306.718 220.5,307.5C 220.167,306.5 219.5,305.833 218.5,305.5C 218.33,299.147 215.33,296.313 209.5,297C 208.532,294.227 207.199,291.727 205.5,289.5C 205.833,288.833 206.167,288.167 206.5,287.5C 209.248,288.813 212.081,289.813 215,290.5C 215.667,288.833 215.667,287.167 215,285.5C 212.494,283.137 209.661,281.47 206.5,280.5C 206.218,279.222 205.551,278.222 204.5,277.5 Z"/></g>
<g><path style="opacity:1" fill="#81d2ac" d="M 104.5,310.5 C 97.8366,308.064 91.5033,305.064 85.5,301.5C 85.6282,299.91 86.2949,298.577 87.5,297.5C 90.0841,296.607 92.7508,296.274 95.5,296.5C 95.5,295.5 95.5,294.5 95.5,293.5C 98.5959,294.093 100.929,293.093 102.5,290.5C 104.271,291.035 104.604,291.869 103.5,293C 106.047,293.436 107.38,294.936 107.5,297.5C 106.653,301.887 105.653,306.22 104.5,310.5 Z"/></g>
<g><path style="opacity:1" fill="#62bd8e" d="M 167.5,276.5 C 159.82,279.162 152.154,282.162 144.5,285.5C 139.894,288.757 135.227,291.924 130.5,295C 129.365,295.749 128.365,295.583 127.5,294.5C 128.919,292.873 128.586,292.373 126.5,293C 125.67,295.802 124.837,298.635 124,301.5C 123.919,306.357 123.752,311.023 123.5,315.5C 120.848,315.59 118.515,314.924 116.5,313.5C 115.435,299.29 111.768,298.29 105.5,310.5C 105.167,310.5 104.833,310.5 104.5,310.5C 105.653,306.22 106.653,301.887 107.5,297.5C 107.38,294.936 106.047,293.436 103.5,293C 104.604,291.869 104.271,291.035 102.5,290.5C 100.929,293.093 98.5959,294.093 95.5,293.5C 95.5,294.5 95.5,295.5 95.5,296.5C 92.7508,296.274 90.0841,296.607 87.5,297.5C 86.2949,298.577 85.6282,299.91 85.5,301.5C 83.2163,301.025 81.2163,300.025 79.5,298.5C 79.8333,296.167 81.1667,294.833 83.5,294.5C 86.8953,291.098 90.562,288.098 94.5,285.5C 93.537,286.363 93.537,287.03 94.5,287.5C 95.4168,286.873 96.4168,286.539 97.5,286.5C 98.9848,287.935 100.318,287.768 101.5,286C 108.799,284.98 116.132,284.313 123.5,284C 138.216,281.822 152.882,279.322 167.5,276.5 Z"/></g>
<g><path style="opacity:1" fill="#9ce3bf" d="M 218.5,305.5 C 219.5,305.833 220.167,306.5 220.5,307.5C 218.11,309.02 215.443,310.02 212.5,310.5C 211.15,306.729 208.983,306.062 206,308.5C 205.506,310.134 205.34,311.801 205.5,313.5C 205.167,313.5 204.833,313.5 204.5,313.5C 204.106,312.033 203.773,310.533 203.5,309C 204.275,306.178 204.942,303.344 205.5,300.5C 208.833,300.5 212.167,300.5 215.5,300.5C 215.273,302.933 216.273,304.599 218.5,305.5 Z"/></g>
<g><path style="opacity:0.987" fill="#c5ecd7" d="M 193.5,316.5 C 188.003,317.302 182.67,318.302 177.5,319.5C 174.5,319.5 171.5,319.5 168.5,319.5C 170.457,313.95 172.79,308.617 175.5,303.5C 177.696,303.41 179.863,303.077 182,302.5C 189.669,304.003 193.502,308.67 193.5,316.5 Z"/></g>
<g><path style="opacity:1" fill="#3e9d69" d="M 116.5,313.5 C 112.653,313.106 108.986,312.106 105.5,310.5C 111.768,298.29 115.435,299.29 116.5,313.5 Z"/></g>
<g><path style="opacity:1" fill="#4abf7e" d="M 212.5,310.5 C 210.321,311.677 207.987,312.677 205.5,313.5C 205.34,311.801 205.506,310.134 206,308.5C 208.983,306.062 211.15,306.729 212.5,310.5 Z"/></g>
</svg>
