<?xml version="1.0" encoding="UTF-8"?>
<!DOCTYPE svg PUBLIC "-//W3C//DTD SVG 1.1//EN" "http://www.w3.org/Graphics/SVG/1.1/DTD/svg11.dtd">
<svg xmlns="http://www.w3.org/2000/svg" version="1.1" width="800px" height="800px" style="shape-rendering:geometricPrecision; text-rendering:geometricPrecision; image-rendering:optimizeQuality; fill-rule:evenodd; clip-rule:evenodd" xmlns:xlink="http://www.w3.org/1999/xlink">
<g><path style="opacity:0.926" fill="#f5f5f5" d="M 227.5,85.5 C 230.187,85.3359 232.854,85.5026 235.5,86C 253.228,94.4525 268.728,105.952 282,120.5C 288.294,130.713 292.627,141.713 295,153.5C 326.57,130.631 358.403,108.131 390.5,86C 395.28,84.9702 399.613,85.9702 403.5,89C 428.029,102.347 450.529,118.514 471,137.5C 480.123,149.194 485.123,162.527 486,177.5C 486.5,207.832 486.667,238.165 486.5,268.5C 506.724,273.297 526.39,279.797 545.5,288C 557.097,293.603 567.597,300.77 577,309.5C 592.685,299.075 609.519,290.908 627.5,285C 637.254,284.231 643.254,288.731 645.5,298.5C 645.101,300.197 644.601,301.863 644,303.5C 636.978,309.524 630.311,315.857 624,322.5C 617.664,331.841 614.331,342.174 614,353.5C 613.333,370.167 613.333,386.833 614,403.5C 628.951,405.831 643.951,406.497 659,405.5C 664,406.5 667,409.5 668,414.5C 668.667,423.833 668.667,433.167 668,442.5C 667.5,447 665,449.5 660.5,450C 644.915,452.82 629.249,454.987 613.5,456.5C 613.333,509.834 613.5,563.168 614,616.5C 613.655,627.981 618.155,636.814 627.5,643C 630.167,643.667 632.833,643.667 635.5,643C 639.327,641.254 642.993,639.254 646.5,637C 648.833,636.333 651.167,636.333 653.5,637C 660.153,641.481 665.153,647.315 668.5,654.5C 667.786,656.811 666.786,658.978 665.5,661C 636.833,677.667 608.167,694.333 579.5,711C 576.072,711.701 572.738,711.368 569.5,710C 558.491,703.497 547.824,696.497 537.5,689C 523.404,676.975 514.904,661.808 512,643.5C 480.43,666.369 448.597,688.869 416.5,711C 412.548,711.912 408.881,711.245 405.5,709C 386.02,697.845 367.353,685.512 349.5,672C 344.333,666.833 339.167,661.667 334,656.5C 325.013,642.56 320.679,627.227 321,610.5C 320.5,583.169 320.333,555.835 320.5,528.5C 299.531,523.566 279.198,516.733 259.5,508C 248.707,502.522 238.874,495.689 230,487.5C 212.959,498.853 194.625,507.52 175,513.5C 167.865,510.865 163.365,505.865 161.5,498.5C 161.899,496.803 162.399,495.137 163,493.5C 171.667,487.5 179,480.167 185,471.5C 189.984,463.239 192.651,454.239 193,444.5C 193.667,427.5 193.667,410.5 193,393.5C 177.913,391.151 162.746,390.484 147.5,391.5C 142.599,390.976 139.766,388.309 139,383.5C 138.333,374.167 138.333,364.833 139,355.5C 139.606,352.452 141.106,349.952 143.5,348C 160.024,344.524 176.691,342.024 193.5,340.5C 193.667,286.832 193.5,233.166 193,179.5C 190.567,153.673 178.567,147.673 157,161.5C 148.639,157.305 142.472,150.972 138.5,142.5C 139.214,140.189 140.214,138.022 141.5,136C 170.394,119.392 199.061,102.559 227.5,85.5 Z M 342.5,155.5 C 348.146,157.154 353.479,159.654 358.5,163C 366.833,168.667 375.167,174.333 383.5,180C 384.191,181.067 384.691,182.234 385,183.5C 385.833,242.836 385.667,302.169 384.5,361.5C 355.415,352.485 325.748,346.152 295.5,342.5C 295.167,291.496 295.5,240.496 296.5,189.5C 312.157,178.496 327.49,167.163 342.5,155.5 Z M 486.5,300.5 C 503.115,312.396 511.281,328.729 511,349.5C 511.667,359.833 511.667,370.167 511,380.5C 502.238,376.871 493.404,373.371 484.5,370C 485.191,368.933 485.691,367.766 486,366.5C 486.5,344.503 486.667,322.503 486.5,300.5 Z M 295.5,416.5 C 304.618,419.893 313.618,423.56 322.5,427.5C 321.902,428.795 321.402,430.128 321,431.5C 320.667,453.167 320.333,474.833 320,496.5C 303.184,483.443 295.184,466.11 296,444.5C 295.5,435.173 295.334,425.839 295.5,416.5 Z M 421.5,435.5 C 450.993,444.132 480.993,450.466 511.5,454.5C 511.833,505.504 511.5,556.504 510.5,607.5C 494.526,618.974 478.693,630.64 463,642.5C 449.576,634.206 436.41,625.539 423.5,616.5C 422.675,612.878 422.175,609.211 422,605.5C 421.5,548.834 421.333,492.168 421.5,435.5 Z"/></g>
<g><path style="opacity:1" fill="#010101" d="M 196.5,442.5 C 197.166,433.84 197.5,425.006 197.5,416C 197.498,406.807 196.832,397.974 195.5,389.5C 178.527,388.215 161.527,387.382 144.5,387C 143.874,386.25 143.374,385.416 143,384.5C 142.333,374.167 142.333,363.833 143,353.5C 144.319,351.513 146.152,350.346 148.5,350C 164.727,346.988 181.06,344.821 197.5,343.5C 197.667,289.166 197.5,234.832 197,180.5C 196.726,171.677 194.059,163.677 189,156.5C 184.33,151.166 178.497,148.999 171.5,150C 167.167,152.333 162.833,154.667 158.5,157C 157.167,157.667 155.833,157.667 154.5,157C 151,153.5 147.5,150 144,146.5C 142.627,144.305 142.294,141.971 143,139.5C 172.06,122.263 201.227,105.263 230.5,88.5C 249.821,96.0858 266.321,107.752 280,123.5C 286.746,134.536 290.746,146.536 292,159.5C 325.677,135.819 359.344,112.152 393,88.5C 421.188,101.599 446.521,118.933 469,140.5C 477.063,150.35 481.397,161.683 482,174.5C 482.171,206.738 482.671,238.905 483.5,271C 508.382,277.294 532.382,285.96 555.5,297C 562.931,301.928 569.931,307.428 576.5,313.5C 593.4,301.884 611.733,293.217 631.5,287.5C 638.414,289.671 641.581,294.338 641,301.5C 629.488,310.014 620.488,320.681 614,333.5C 613.178,335.788 612.511,338.122 612,340.5C 610.554,362.789 610.054,385.122 610.5,407.5C 627.451,409.054 644.451,409.888 661.5,410C 662.333,410.833 663.167,411.667 664,412.5C 664.667,422.833 664.667,433.167 664,443.5C 663.5,444.667 662.667,445.5 661.5,446C 644.594,449.215 627.594,451.715 610.5,453.5C 610.028,511.862 610.528,570.195 612,628.5C 619.365,649.02 631.698,652.686 649,639.5C 654.832,642.318 659.832,646.318 664,651.5C 664.687,653.568 664.52,655.568 663.5,657.5C 634.615,675.547 605.115,692.547 575,708.5C 557.229,700.111 541.562,688.777 528,674.5C 521.293,663.049 516.96,650.716 515,637.5C 481.444,661.933 447.444,685.599 413,708.5C 384.198,694.595 358.532,676.262 336,653.5C 329.885,643.721 326.218,633.055 325,621.5C 324.833,589.828 324.333,558.161 323.5,526.5C 303.792,521.097 284.459,514.597 265.5,507C 252.454,501.149 240.787,493.316 230.5,483.5C 213.382,495.391 194.715,504.058 174.5,509.5C 170.888,507.723 168.055,505.056 166,501.5C 165.333,499.5 165.333,497.5 166,495.5C 178.659,486.506 187.992,474.84 194,460.5C 195.594,454.601 196.428,448.601 196.5,442.5 Z M 342.5,155.5 C 327.49,167.163 312.157,178.496 296.5,189.5C 295.5,240.496 295.167,291.496 295.5,342.5C 325.748,346.152 355.415,352.485 384.5,361.5C 385.667,302.169 385.833,242.836 385,183.5C 384.691,182.234 384.191,181.067 383.5,180C 375.167,174.333 366.833,168.667 358.5,163C 353.479,159.654 348.146,157.154 342.5,155.5 Z M 486.5,300.5 C 486.667,322.503 486.5,344.503 486,366.5C 485.691,367.766 485.191,368.933 484.5,370C 493.404,373.371 502.238,376.871 511,380.5C 511.667,370.167 511.667,359.833 511,349.5C 511.281,328.729 503.115,312.396 486.5,300.5 Z M 295.5,416.5 C 295.334,425.839 295.5,435.173 296,444.5C 295.184,466.11 303.184,483.443 320,496.5C 320.333,474.833 320.667,453.167 321,431.5C 321.402,430.128 321.902,428.795 322.5,427.5C 313.618,423.56 304.618,419.893 295.5,416.5 Z M 421.5,435.5 C 421.333,492.168 421.5,548.834 422,605.5C 422.175,609.211 422.675,612.878 423.5,616.5C 436.41,625.539 449.576,634.206 463,642.5C 478.693,630.64 494.526,618.974 510.5,607.5C 511.5,556.504 511.833,505.504 511.5,454.5C 480.993,450.466 450.993,444.132 421.5,435.5 Z"/></g>
<g><path style="opacity:0.957" fill="#f3f3f3" d="M 388.5,184.5 C 389.163,245.176 388.496,305.509 386.5,365.5C 355.405,356.247 323.739,349.58 291.5,345.5C 291.333,293.166 291.5,240.832 292,188.5C 309.511,176.078 326.844,163.411 344,150.5C 358.436,159.273 372.603,168.439 386.5,178C 388.229,179.789 388.896,181.956 388.5,184.5 Z M 342.5,155.5 C 327.49,167.163 312.157,178.496 296.5,189.5C 295.5,240.496 295.167,291.496 295.5,342.5C 325.748,346.152 355.415,352.485 384.5,361.5C 385.667,302.169 385.833,242.836 385,183.5C 384.691,182.234 384.191,181.067 383.5,180C 375.167,174.333 366.833,168.667 358.5,163C 353.479,159.654 348.146,157.154 342.5,155.5 Z"/></g>
<g><path style="opacity:1" fill="#5d5d5d" d="M 388.5,184.5 C 389.499,244.998 389.832,305.664 389.5,366.5C 388.209,366.737 387.209,366.404 386.5,365.5C 388.496,305.509 389.163,245.176 388.5,184.5 Z"/></g>
<g><path style="opacity:0.94" fill="#efefef" d="M 514.5,350.5 C 514.828,362.012 514.495,373.346 513.5,384.5C 501.407,380.302 489.407,375.802 477.5,371C 479.329,370.727 480.829,369.893 482,368.5C 482.333,343.5 482.667,318.5 483,293.5C 504.328,306.371 514.828,325.371 514.5,350.5 Z M 486.5,300.5 C 486.667,322.503 486.5,344.503 486,366.5C 485.691,367.766 485.191,368.933 484.5,370C 493.404,373.371 502.238,376.871 511,380.5C 511.667,370.167 511.667,359.833 511,349.5C 511.281,328.729 503.115,312.396 486.5,300.5 Z"/></g>
<g><path style="opacity:1" fill="#bbbbbb" d="M 514.5,350.5 C 515.824,362.007 515.824,373.673 514.5,385.5C 513.893,385.376 513.56,385.043 513.5,384.5C 514.495,373.346 514.828,362.012 514.5,350.5 Z"/></g>
<g><path style="opacity:1" fill="#787878" d="M 195.5,389.5 C 196.832,397.974 197.498,406.807 197.5,416C 197.5,425.006 197.166,433.84 196.5,442.5C 196.819,424.757 196.486,407.09 195.5,389.5 Z"/></g>
<g><path style="opacity:1" fill="#949494" d="M 293.5,412.5 C 292.507,420.984 292.174,429.651 292.5,438.5C 291.178,429.658 291.178,420.658 292.5,411.5C 293.107,411.624 293.44,411.957 293.5,412.5 Z"/></g>
<g><path style="opacity:0.881" fill="#fafafa" d="M 293.5,412.5 C 305.339,416.503 317.006,421.003 328.5,426C 327.333,427.167 326.167,428.333 325,429.5C 324.833,453.84 324.333,478.174 323.5,502.5C 304.455,491.437 294.289,474.771 293,452.5C 292.501,447.845 292.334,443.179 292.5,438.5C 292.174,429.651 292.507,420.984 293.5,412.5 Z M 295.5,416.5 C 295.334,425.839 295.5,435.173 296,444.5C 295.184,466.11 303.184,483.443 320,496.5C 320.333,474.833 320.667,453.167 321,431.5C 321.402,430.128 321.902,428.795 322.5,427.5C 313.618,423.56 304.618,419.893 295.5,416.5 Z"/></g>
<g><path style="opacity:0.917" fill="#f8f8f8" d="M 418.5,430.5 C 450.085,440.73 482.418,447.73 515.5,451.5C 515.667,503.834 515.5,556.168 515,608.5C 497.667,621.167 480.333,633.833 463,646.5C 448.405,637.788 434.238,628.455 420.5,618.5C 419.719,617.271 419.219,615.938 419,614.5C 418.5,553.168 418.333,491.834 418.5,430.5 Z M 421.5,435.5 C 421.333,492.168 421.5,548.834 422,605.5C 422.175,609.211 422.675,612.878 423.5,616.5C 436.41,625.539 449.576,634.206 463,642.5C 478.693,630.64 494.526,618.974 510.5,607.5C 511.5,556.504 511.833,505.504 511.5,454.5C 480.993,450.466 450.993,444.132 421.5,435.5 Z"/></g>
</svg>
